<?xml version="1.0" encoding="UTF-8" standalone="no"?>
<!-- Generator: Adobe Illustrator 18.1.0, SVG Export Plug-In . SVG Version: 6.00 Build 0)  -->

<svg
   xmlns:dc="http://purl.org/dc/elements/1.1/"
   xmlns:cc="http://creativecommons.org/ns#"
   xmlns:rdf="http://www.w3.org/1999/02/22-rdf-syntax-ns#"
   xmlns:svg="http://www.w3.org/2000/svg"
   xmlns="http://www.w3.org/2000/svg"
   xmlns:sodipodi="http://sodipodi.sourceforge.net/DTD/sodipodi-0.dtd"
   xmlns:inkscape="http://www.inkscape.org/namespaces/inkscape"
   version="1.1"
   id="Layer_1"
   x="0px"
   y="0px"
   viewBox="0 0 500 500"
   enable-background=""
   xml:space="preserve"
   inkscape:version="0.91 r13725"
   sodipodi:docname="final-due-to-tt-2.svg"
   width="500"
   height="500"><metadata
   id="metadata3185"><rdf:RDF><cc:Work
       rdf:about=""><dc:format>image/svg+xml</dc:format><dc:type
         rdf:resource="http://purl.org/dc/dcmitype/StillImage" /><dc:title /></cc:Work></rdf:RDF></metadata><defs
   id="defs3183">

</defs><sodipodi:namedview
   pagecolor="#ffffff"
   bordercolor="#666666"
   borderopacity="1"
   objecttolerance="10"
   gridtolerance="10"
   guidetolerance="10"
   inkscape:pageopacity="0"
   inkscape:pageshadow="2"
   inkscape:window-width="1366"
   inkscape:window-height="705"
   id="namedview3181"
   showgrid="false"
   inkscape:zoom="6.3428796"
   inkscape:cx="230.91934"
   inkscape:cy="326.12778"
   inkscape:window-x="-8"
   inkscape:window-y="-8"
   inkscape:window-maximized="1"
   inkscape:current-layer="Layer_1" />
   <g
   id="all-image"
   transform="matrix(1.7820969,0,0,1.8919491,-297.72759,-585.092)">
    <g
   id="pic-1"><path
     style="fill:none;stroke:none;stroke-width:2;stroke-linecap:round;stroke-linejoin:round;stroke-miterlimit:10"
     inkscape:connector-curvature="0"
     d="m 278,426 c 0.9,-0.9 3.3,-3.7 7.6,-4.6 5.3,-1.2 9.5,1.2 10.5,1.7"
     stroke-miterlimit="10"
     id="XMLID_95_" /><path
     style="fill:none;stroke:none;stroke-width:2;stroke-linecap:round;stroke-linejoin:round;stroke-miterlimit:10"
     inkscape:connector-curvature="0"
     d="m 286,433.2 c 2.3,0.3 5.5,0.3 8.9,-0.7 0.7,-0.2 1.5,-0.5 2.1,-0.8"
     stroke-miterlimit="10"
     id="XMLID_94_" /><path
     style="fill:none;stroke:none;stroke-width:2;stroke-linecap:round;stroke-linejoin:round;stroke-miterlimit:10"
     d="m 291.99999,427.39999 a 3.2,3.5999999 0 0 1 -3.2,3.6 3.2,3.5999999 0 0 1 -3.2,-3.6 3.2,3.5999999 0 0 1 3.2,-3.6 3.2,3.5999999 0 0 1 3.2,3.6 z"
     id="XMLID_93_" /><path
     style="fill:none;stroke:none;stroke-width:2;stroke-linecap:round;stroke-linejoin:round;stroke-miterlimit:10"
     inkscape:connector-curvature="0"
     d="m 278.4,429.1 c 0.6,-0.8 3.7,-4.7 9,-5.3 4.7,-0.6 8,1.7 9,2.4"
     stroke-miterlimit="10"
     id="XMLID_92_" /><path
     style="fill:none;stroke:none;stroke-width:2;stroke-linecap:round;stroke-linejoin:round;stroke-miterlimit:10"
     inkscape:connector-curvature="0"
     d="m 279.7,427.7 c 0.4,0.5 1.1,1.1 1.9,1.7 2.5,1.7 5.2,1.7 6.5,1.7 3.6,0 6.2,-1.6 7.4,-2.4"
     stroke-miterlimit="10"
     id="XMLID_91_" /><path
     style="fill:none;stroke:none;stroke-width:2;stroke-linecap:round;stroke-linejoin:round;stroke-miterlimit:10"
     inkscape:connector-curvature="0"
     d="m 314.9,420.3 c 0,0.1 0.2,0.2 1.9,0 3.7,-0.5 5.1,-1.4 8.4,-2.2 3.3,-0.9 5.8,-0.9 7.4,-0.9 2,0 2.9,0.2 3.4,0.3 0.4,0.1 1.4,0.5 4.5,2.7 2.2,1.6 2.7,2.2 3.1,1.9 0.6,-0.4 0.3,-2.5 -0.5,-4.2 -1.4,-2.9 -4.3,-4 -5.1,-4.3 -3.9,-1.5 -7.6,-0.6 -10.9,0.3 -6.9,1.7 -12.6,5.6 -12.2,6.4 z"
     stroke-miterlimit="10"
     id="XMLID_90_" /><path
     style="fill:none;stroke:none;stroke-width:2;stroke-linecap:round;stroke-linejoin:round;stroke-miterlimit:10"
     inkscape:connector-curvature="0"
     d="m 339.7,426 c -0.8,-0.9 -3.3,-3.7 -7.6,-4.6 -5.4,-1.2 -9.5,1.2 -10.5,1.7"
     stroke-miterlimit="10"
     id="XMLID_89_" /><path
     style="fill:none;stroke:none;stroke-width:2;stroke-linecap:round;stroke-linejoin:round;stroke-miterlimit:10"
     inkscape:connector-curvature="0"
     d="m 331.7,433.2 c -2.3,0.3 -5.5,0.3 -8.9,-0.7 -0.7,-0.2 -1.4,-0.5 -2.1,-0.8"
     stroke-miterlimit="10"
     id="XMLID_88_" /><path
     style="fill:none;stroke:none;stroke-width:2;stroke-linecap:round;stroke-linejoin:round;stroke-miterlimit:10"
     d="m 332.59999,427.20001 a 3.3,3.4000001 0 0 1 -3.3,3.4 3.3,3.4000001 0 0 1 -3.3,-3.4 3.3,3.4000001 0 0 1 3.3,-3.4 3.3,3.4000001 0 0 1 3.3,3.4 z"
     id="XMLID_87_" /><path
     style="fill:none;stroke:none;stroke-width:2;stroke-linecap:round;stroke-linejoin:round;stroke-miterlimit:10"
     inkscape:connector-curvature="0"
     d="m 340,428.8 c -0.6,-0.7 -3.8,-4.3 -9.4,-5 -4.8,-0.5 -8.4,1.6 -9.3,2.2"
     stroke-miterlimit="10"
     id="XMLID_86_" /><path
     style="fill:none;stroke:none;stroke-width:2;stroke-linecap:round;stroke-linejoin:round;stroke-miterlimit:10"
     inkscape:connector-curvature="0"
     d="m 338.8,427.5 c -0.4,0.5 -1.1,1.1 -2,1.6 -2.7,1.6 -5.4,1.6 -6.8,1.6 -3.7,0 -6.5,-1.5 -7.8,-2.3"
     stroke-miterlimit="10"
     id="XMLID_85_" /><path
     style="fill:none;stroke:none;stroke-width:2;stroke-linecap:round;stroke-linejoin:round;stroke-miterlimit:10"
     inkscape:connector-curvature="0"
     d="m 270,385.5 c -0.7,-3.2 -1.4,-8.4 0.8,-13.8 1.1,-2.7 2.5,-4.7 4.3,-6.6 1.6,-1.6 3.4,-3.2 5.5,-4.8 4.4,-3.6 8.6,-5.8 11.7,-7.2"
     stroke-miterlimit="10"
     id="XMLID_84_" /><path
     style="fill:none;stroke:none;stroke-width:2;stroke-linecap:round;stroke-linejoin:round;stroke-miterlimit:10"
     inkscape:connector-curvature="0"
     d="m 274.1,385.2 c -0.6,-0.9 -2.2,-4.1 -1.5,-8.2 0.6,-3.7 2.8,-6 3.5,-6.7"
     stroke-miterlimit="10"
     id="XMLID_83_" /><path
     style="fill:none;stroke:none;stroke-width:2;stroke-linecap:round;stroke-linejoin:round;stroke-miterlimit:10"
     inkscape:connector-curvature="0"
     d="m 281.1,359.3 c 3.1,-4 6.4,-6.2 8.4,-7.4 0,0 9.6,-5.5 22.8,-2.7 2.7,0.6 4.7,1.4 5.1,1.6 3,1.3 5.1,3 6.4,4.2"
     stroke-miterlimit="10"
     id="XMLID_82_" /><path
     style="fill:none;stroke:none;stroke-width:2;stroke-linecap:round;stroke-linejoin:round;stroke-miterlimit:10"
     inkscape:connector-curvature="0"
     d="m 284.7,384.7 c -0.8,-2 -1.7,-5 -1.9,-8.9 0,0 -0.3,-6.8 2.5,-12.6 4,-8.3 16.2,-14 30.4,-13.1"
     stroke-miterlimit="10"
     id="XMLID_81_" /><path
     style="fill:none;stroke:none;stroke-width:2;stroke-linecap:round;stroke-linejoin:round;stroke-miterlimit:10"
     inkscape:connector-curvature="0"
     d="m 301.6,385.2 c -1.3,-0.9 -4.3,-3.2 -6.1,-7.4 -0.3,-0.8 -2.6,-6.6 0.1,-12.7 1.2,-2.6 2.7,-4.2 3.1,-4.6 4.7,-4.7 11.3,-4.7 17,-4.8 2.7,-0.1 6.4,-0.1 10.9,1.6 2.6,1 4.5,2.1 5.9,3.1"
     stroke-miterlimit="10"
     id="XMLID_80_" /><path
     style="fill:none;stroke:none;stroke-width:2;stroke-linecap:round;stroke-linejoin:round;stroke-miterlimit:10"
     inkscape:connector-curvature="0"
     d="m 307.6,384.3 c -3.1,-6.4 -2.8,-13.4 0.9,-17.6 3.8,-4.3 10,-4.2 13.3,-4.2 6.3,0.1 11,2.5 13.1,3.9"
     stroke-miterlimit="10"
     id="XMLID_79_" /><path
     style="fill:none;stroke:none;stroke-width:2;stroke-linecap:round;stroke-linejoin:round;stroke-miterlimit:10"
     inkscape:connector-curvature="0"
     d="m 320.3,383.3 c -1.3,-0.6 -2,-1.4 -2.4,-1.8 -1.2,-1.6 -1.6,-3.8 -1.2,-5.3 0.1,-0.3 0.3,-0.9 0.4,-1.8 0.1,-0.9 0,-1.4 0,-1.7 0,-1.6 1.2,-3.3 2.5,-4.2 2,-1.4 4.3,-1.1 5.8,-0.8 1.6,0.2 1.2,0.6 5,1.5 1.1,0.2 1.7,0.4 2.6,0.9 1.4,0.7 1.7,1.3 2.6,1.9 0.8,0.6 2.3,1.1 4.7,0.8"
     stroke-miterlimit="10"
     id="XMLID_78_" /><path
     style="fill:none;stroke:none;stroke-width:2;stroke-linecap:round;stroke-linejoin:round;stroke-miterlimit:10"
     inkscape:connector-curvature="0"
     d="m 325.3,383 c 0.2,-5 1.3,-8.7 2.9,-9 0.7,-0.1 2,0.4 2.4,0.6 1.1,0.4 1.4,0.7 2.2,1.1 1.6,0.7 2.9,0.7 3.5,0.8 1.4,0.2 3.5,1.4 5.8,6.1"
     stroke-miterlimit="10"
     id="XMLID_77_" /><path
     style="fill:none;stroke:none;stroke-width:2;stroke-linecap:round;stroke-linejoin:round;stroke-miterlimit:10"
     inkscape:connector-curvature="0"
     d="m 324.9,470.1 c 0,0 0.2,0.3 0.2,0.6 -0.1,1.1 -5.7,1.3 -16.7,1.6 0,0 -3,0.1 -9.5,-0.2 -3.4,-0.1 -7.2,-0.3 -7.4,-1.3 -0.1,-0.3 0.3,-0.7 0.3,-0.8 0.5,-0.6 1.4,-0.6 2,-0.6 1.1,-0.1 2.2,-0.3 3.4,-0.3 3.3,-0.2 3.6,-2.4 6.4,-2.4 0.7,0 2.4,0.2 3.1,0.8 0.3,0.2 0.6,0.4 0.9,0.6 0.6,0.3 0.8,0.4 0.9,0.3 0.3,0 0.5,-0.2 1,-0.5 0.3,-0.2 0.7,-0.4 1,-0.6 0.7,-0.5 2.4,-0.7 3.7,-0.6 2.3,0.2 2.1,1.6 4.8,2 3.2,0.6 3.7,0.6 3.7,0.6 0.7,0 1.8,0 2.2,0.8 z"
     stroke-miterlimit="10"
     id="XMLID_143_" /><path
     style="fill:none;stroke:none;stroke-width:2;stroke-linecap:round;stroke-linejoin:round;stroke-miterlimit:10"
     inkscape:connector-curvature="0"
     d="m 323.4,473.6 c -0.9,0.5 -2.2,1.2 -3.9,1.8 -1.8,0.6 -3.7,1 -11.1,1.1 -7.7,0.1 -9.5,-0.2 -11.2,-0.8 -1.9,-0.6 -3.3,-1.4 -4.3,-2"
     stroke-miterlimit="10"
     id="XMLID_142_" /><path
     style="fill:none;stroke:none;stroke-width:2;stroke-linecap:round;stroke-linejoin:round;stroke-miterlimit:10"
     inkscape:connector-curvature="0"
     d="m 306.6,483.3 c 0.5,0.1 1.2,0.2 1.9,0.2 0.9,0 1.6,-0.1 2.1,-0.2"
     stroke-miterlimit="10"
     id="XMLID_141_" /><path
     style="fill:none;stroke:none;stroke-width:2;stroke-linecap:round;stroke-linejoin:round;stroke-miterlimit:10"
     inkscape:connector-curvature="0"
     d="m 276.9,484.9 c -0.4,7.8 -0.7,15.5 -1.1,23.3"
     stroke-miterlimit="10"
     id="XMLID_140_" /><path
     style="fill:none;stroke:none;stroke-width:2;stroke-linecap:round;stroke-linejoin:round;stroke-miterlimit:10"
     inkscape:connector-curvature="0"
     d="m 339.9,485.7 c 0.3,7.8 0.6,15.6 0.9,23.4"
     stroke-miterlimit="10"
     id="XMLID_139_" /><path
     style="fill:none;stroke:none;stroke-width:2;stroke-linecap:round;stroke-linejoin:round;stroke-miterlimit:10"
     inkscape:connector-curvature="0"
     d="m 263.2,426.9 c -0.9,-0.3 -2.1,-0.6 -2.8,0.1 -0.7,0.6 -0.3,1.8 -0.2,4.4 0.3,4.3 -0.5,4.7 0.2,7.3 0.5,1.7 0.9,1.7 1.5,3.7 0.5,1.7 0.3,2.4 0.6,4.5 0.3,2.5 0.6,2.2 1.4,6.1 0.7,3.5 0.7,4.9 1.9,5.6 0.7,0.4 1.6,0.4 2.1,0.3"
     stroke-miterlimit="10"
     id="XMLID_138_" /><path
     style="fill:none;stroke:none;stroke-width:2;stroke-linecap:round;stroke-linejoin:round;stroke-miterlimit:10"
     inkscape:connector-curvature="0"
     d="m 355.5,426.9 c 0.9,-0.3 2,-0.6 2.8,0.1 0.8,0.7 0.3,1.8 0.2,4.4 -0.3,4.3 0.5,4.7 -0.2,7.3 -0.5,1.7 -0.9,1.7 -1.4,3.7 -0.5,1.7 -0.3,2.4 -0.5,4.5 -0.3,2.5 -0.6,2.2 -1.4,6.1 -0.7,3.5 -0.7,4.9 -1.9,5.6 -0.7,0.4 -2.5,-0.4 -3.1,-0.5"
     stroke-miterlimit="10"
     id="XMLID_137_" /><path
     style="fill:none;stroke:none;stroke-width:2;stroke-linecap:round;stroke-linejoin:round;stroke-miterlimit:10"
     inkscape:connector-curvature="0"
     d="m 302.9,420.3 c 0,0.1 -0.2,0.2 -1.9,0 -3.7,-0.5 -5.2,-1.4 -8.4,-2.2 -3.3,-0.9 -5.8,-0.9 -7.4,-0.9 -2,0 -2.9,0.2 -3.4,0.3 -0.4,0.1 -1.5,0.5 -4.5,2.7 -2.2,1.6 -2.7,2.2 -3.1,1.9 -0.6,-0.4 -0.3,-2.5 0.6,-4.2 1.4,-2.9 4.3,-4 5.2,-4.3 3.9,-1.5 7.5,-0.6 10.9,0.3 6.7,1.7 12.3,5.6 12,6.4 z"
     stroke-miterlimit="10"
     id="XMLID_136_" /><path
     style="fill:none;stroke:none;stroke-width:2;stroke-linecap:round;stroke-linejoin:round;stroke-miterlimit:10"
     inkscape:connector-curvature="0"
     d="m 278,426 c 0.9,-0.9 3.3,-3.7 7.6,-4.6 5.3,-1.2 9.5,1.2 10.5,1.7"
     stroke-miterlimit="10"
     id="XMLID_135_" /><path
     style="fill:none;stroke:none;stroke-width:2;stroke-linecap:round;stroke-linejoin:round;stroke-miterlimit:10"
     inkscape:connector-curvature="0"
     d="m 286,433.2 c 2.3,0.3 5.5,0.3 8.9,-0.7 0.7,-0.2 1.5,-0.5 2.1,-0.8"
     stroke-miterlimit="10"
     id="XMLID_134_" /><path
     style="fill:none;stroke:none;stroke-width:2;stroke-linecap:round;stroke-linejoin:round;stroke-miterlimit:10"
     d="m 291.99999,427.39999 a 3.2,3.5999999 0 0 1 -3.2,3.6 3.2,3.5999999 0 0 1 -3.2,-3.6 3.2,3.5999999 0 0 1 3.2,-3.6 3.2,3.5999999 0 0 1 3.2,3.6 z"
     id="XMLID_133_" /><path
     style="fill:none;stroke:none;stroke-width:2;stroke-linecap:round;stroke-linejoin:round;stroke-miterlimit:10"
     inkscape:connector-curvature="0"
     d="m 278.4,429.1 c 0.6,-0.8 3.7,-4.7 9,-5.3 4.7,-0.6 8,1.7 9,2.4"
     stroke-miterlimit="10"
     id="XMLID_132_" /><path
     style="fill:none;stroke:none;stroke-width:2;stroke-linecap:round;stroke-linejoin:round;stroke-miterlimit:10"
     inkscape:connector-curvature="0"
     d="m 279.7,427.7 c 0.4,0.5 1.1,1.1 1.9,1.7 2.5,1.7 5.2,1.7 6.5,1.7 3.6,0 6.2,-1.6 7.4,-2.4"
     stroke-miterlimit="10"
     id="XMLID_131_" /><path
     style="fill:none;stroke:none;stroke-width:2;stroke-linecap:round;stroke-linejoin:round;stroke-miterlimit:10"
     inkscape:connector-curvature="0"
     d="m 314.9,420.3 c 0,0.1 0.2,0.2 1.9,0 3.7,-0.5 5.1,-1.4 8.4,-2.2 3.3,-0.9 5.8,-0.9 7.4,-0.9 2,0 2.9,0.2 3.4,0.3 0.4,0.1 1.4,0.5 4.5,2.7 2.2,1.6 2.7,2.2 3.1,1.9 0.6,-0.4 0.3,-2.5 -0.5,-4.2 -1.4,-2.9 -4.3,-4 -5.1,-4.3 -3.9,-1.5 -7.6,-0.6 -10.9,0.3 -6.9,1.7 -12.6,5.6 -12.2,6.4 z"
     stroke-miterlimit="10"
     id="XMLID_130_" /><path
     style="fill:none;stroke:none;stroke-width:2;stroke-linecap:round;stroke-linejoin:round;stroke-miterlimit:10"
     inkscape:connector-curvature="0"
     d="m 339.7,426 c -0.8,-0.9 -3.3,-3.7 -7.6,-4.6 -5.4,-1.2 -9.5,1.2 -10.5,1.7"
     stroke-miterlimit="10"
     id="XMLID_129_" /><path
     style="fill:none;stroke:none;stroke-width:2;stroke-linecap:round;stroke-linejoin:round;stroke-miterlimit:10"
     inkscape:connector-curvature="0"
     d="m 331.7,433.2 c -2.3,0.3 -5.5,0.3 -8.9,-0.7 -0.7,-0.2 -1.4,-0.5 -2.1,-0.8"
     stroke-miterlimit="10"
     id="XMLID_127_" /><path
     style="fill:none;stroke:none;stroke-width:2;stroke-linecap:round;stroke-linejoin:round;stroke-miterlimit:10"
     d="m 332.59999,427.20001 a 3.3,3.4000001 0 0 1 -3.3,3.4 3.3,3.4000001 0 0 1 -3.3,-3.4 3.3,3.4000001 0 0 1 3.3,-3.4 3.3,3.4000001 0 0 1 3.3,3.4 z"
     id="XMLID_126_" /><path
     style="fill:none;stroke:none;stroke-width:2;stroke-linecap:round;stroke-linejoin:round;stroke-miterlimit:10"
     inkscape:connector-curvature="0"
     d="m 340,428.8 c -0.6,-0.7 -3.8,-4.3 -9.4,-5 -4.8,-0.5 -8.4,1.6 -9.3,2.2"
     stroke-miterlimit="10"
     id="XMLID_125_" /><path
     style="fill:none;stroke:none;stroke-width:2;stroke-linecap:round;stroke-linejoin:round;stroke-miterlimit:10"
     inkscape:connector-curvature="0"
     d="m 338.8,427.5 c -0.4,0.5 -1.1,1.1 -2,1.6 -2.7,1.6 -5.4,1.6 -6.8,1.6 -3.7,0 -6.5,-1.5 -7.8,-2.3"
     stroke-miterlimit="10"
     id="XMLID_124_" /><path
     style="fill:none;stroke:none;stroke-width:2;stroke-linecap:round;stroke-linejoin:round;stroke-miterlimit:10"
     inkscape:connector-curvature="0"
     d="m 270,385.5 c -0.7,-3.2 -1.4,-8.4 0.8,-13.8 1.1,-2.7 2.5,-4.7 4.3,-6.6 1.6,-1.6 3.4,-3.2 5.5,-4.8 4.4,-3.6 8.6,-5.8 11.7,-7.2"
     stroke-miterlimit="10"
     id="XMLID_123_" /><path
     style="fill:none;stroke:none;stroke-width:2;stroke-linecap:round;stroke-linejoin:round;stroke-miterlimit:10"
     inkscape:connector-curvature="0"
     d="m 274.1,385.2 c -0.6,-0.9 -2.2,-4.1 -1.5,-8.2 0.6,-3.7 2.8,-6 3.5,-6.7"
     stroke-miterlimit="10"
     id="XMLID_122_" /><path
     style="fill:none;stroke:none;stroke-width:2;stroke-linecap:round;stroke-linejoin:round;stroke-miterlimit:10"
     inkscape:connector-curvature="0"
     d="m 281.1,359.3 c 3.1,-4 6.4,-6.2 8.4,-7.4 0,0 9.6,-5.5 22.8,-2.7 2.7,0.6 4.7,1.4 5.1,1.6 3,1.3 5.1,3 6.4,4.2"
     stroke-miterlimit="10"
     id="XMLID_121_" /><path
     style="fill:none;stroke:none;stroke-width:2;stroke-linecap:round;stroke-linejoin:round;stroke-miterlimit:10"
     inkscape:connector-curvature="0"
     d="m 284.7,384.7 c -0.8,-2 -1.7,-5 -1.9,-8.9 0,0 -0.3,-6.8 2.5,-12.6 4,-8.3 16.2,-14 30.4,-13.1"
     stroke-miterlimit="10"
     id="XMLID_120_" /><path
     style="fill:none;stroke:none;stroke-width:2;stroke-linecap:round;stroke-linejoin:round;stroke-miterlimit:10"
     inkscape:connector-curvature="0"
     d="m 301.6,385.2 c -1.3,-0.9 -4.3,-3.2 -6.1,-7.4 -0.3,-0.8 -2.6,-6.6 0.1,-12.7 1.2,-2.6 2.7,-4.2 3.1,-4.6 4.7,-4.7 11.3,-4.7 17,-4.8 2.7,-0.1 6.4,-0.1 10.9,1.6 2.6,1 4.5,2.1 5.9,3.1"
     stroke-miterlimit="10"
     id="XMLID_119_" /><path
     style="fill:none;stroke:none;stroke-width:2;stroke-linecap:round;stroke-linejoin:round;stroke-miterlimit:10"
     inkscape:connector-curvature="0"
     d="m 307.6,384.3 c -3.1,-6.4 -2.8,-13.4 0.9,-17.6 3.8,-4.3 10,-4.2 13.3,-4.2 6.3,0.1 11,2.5 13.1,3.9"
     stroke-miterlimit="10"
     id="XMLID_118_" /><path
     style="fill:none;stroke:none;stroke-width:2;stroke-linecap:round;stroke-linejoin:round;stroke-miterlimit:10"
     inkscape:connector-curvature="0"
     d="m 320.3,383.3 c -1.3,-0.6 -2,-1.4 -2.4,-1.8 -1.2,-1.6 -1.6,-3.8 -1.2,-5.3 0.1,-0.3 0.3,-0.9 0.4,-1.8 0.1,-0.9 0,-1.4 0,-1.7 0,-1.6 1.2,-3.3 2.5,-4.2 2,-1.4 4.3,-1.1 5.8,-0.8 1.6,0.2 1.2,0.6 5,1.5 1.1,0.2 1.7,0.4 2.6,0.9 1.4,0.7 1.7,1.3 2.6,1.9 0.8,0.6 2.3,1.1 4.7,0.8"
     stroke-miterlimit="10"
     id="XMLID_117_" /><path
     style="fill:none;stroke:none;stroke-width:2;stroke-linecap:round;stroke-linejoin:round;stroke-miterlimit:10"
     inkscape:connector-curvature="0"
     d="m 325.3,383 c 0.2,-5 1.3,-8.7 2.9,-9 0.7,-0.1 2,0.4 2.4,0.6 1.1,0.4 1.4,0.7 2.2,1.1 1.6,0.7 2.9,0.7 3.5,0.8 1.4,0.2 3.5,1.4 5.8,6.1"
     stroke-miterlimit="10"
     id="XMLID_116_" /><path
     style="fill:none;stroke:none;stroke-width:2;stroke-linecap:round;stroke-linejoin:round;stroke-miterlimit:10"
     inkscape:connector-curvature="0"
     d="m 267.6,385.5 c -2.2,2.7 -5.6,7.4 -6.9,13.9 -0.3,1.5 -0.9,4.6 -0.5,8.6 0.4,3.8 1.6,6 2.5,8.4 0.9,2.6 0.9,7.1 0.9,16 0,5.6 1.1,11.2 1.2,16.8 0,1 0.1,4 1.7,4.8 0.5,0.2 1,0.3 1.4,0.2"
     stroke-miterlimit="10"
     id="XMLID_115_" /><path
     style="fill:none;stroke:none;stroke-width:2;stroke-linecap:round;stroke-linejoin:round;stroke-miterlimit:10"
     inkscape:connector-curvature="0"
     d="m 338.3,368.2 c 5.4,1.2 8.7,3.7 10.5,5.2 5.8,5 7.4,11.7 8.5,16 0.7,3 0.9,5.8 1.2,11.6 0.4,7 0.6,10.5 0,15.3 -1.1,8.1 -3.1,7.4 -3.7,14.6 -0.5,6.4 0.5,9.7 -0.9,14.2 -1.1,3.3 -2.5,5.8 -3.7,7.3"
     stroke-miterlimit="10"
     id="XMLID_114_" /><path
     style="fill:none;stroke:none;stroke-width:2;stroke-linecap:round;stroke-linejoin:round;stroke-miterlimit:10"
     inkscape:connector-curvature="0"
     d="m 347.4,399 c 1.1,9.4 1.9,16.1 2.6,21 0,0 1.4,9.5 1.2,17.1 -0.1,4.3 -0.4,5.3 -0.8,9 -0.2,1.9 -0.3,3.3 -0.6,6.1 -0.8,9.6 -0.4,17.7 -2.6,23.4 -0.8,2.2 -2,4 -2,4 -1.1,1.6 -2,2.9 -3.1,4 -1.7,1.7 -3.2,3 -3.6,3.3 -3,2.4 -5.3,3.8 -8.4,6.3 -4.5,3.5 -6.3,5.5 -10.3,7.1 -0.5,0.2 -0.9,0.6 -1.6,0.7 -3.8,1 -7.3,0.9 -9.5,0.2 -0.1,0 -0.1,0 -0.2,0 -2.3,0.3 -5.8,0.6 -9.6,-0.6 -1.9,-0.6 -3,-1.3 -11.3,-7.1 -8.2,-5.8 -0.9,-0.8 -11.6,-9.2 -1,-0.8 -2.9,-2.3 -4.3,-4.9 -0.9,-1.7 -1.2,-3.2 -1.4,-4 -1.6,-7.7 -2.4,-18.7 -2.8,-23.4 -0.7,-9.5 -1.3,-9.1 -1.4,-15.1 -0.1,-7.4 1.2,-17.1 1.2,-17.1 1.1,-7.9 2.1,-14.5 2.9,-20.1"
     stroke-miterlimit="10"
     id="Border_5_" /><path
     style="fill:none;stroke:none;stroke-width:2;stroke-linecap:round;stroke-linejoin:round;stroke-miterlimit:10"
     inkscape:connector-curvature="0"
     d="m 299.4,448.7 c -1.1,2.1 -1.2,3.9 -1.2,5 0,1.4 0,2.5 0.8,3.6 0.9,1.2 2.4,1.5 3,1.6"
     stroke-miterlimit="10"
     id="XMLID_113_" /><path
     style="fill:none;stroke:none;stroke-width:2;stroke-linecap:round;stroke-linejoin:round;stroke-miterlimit:10"
     inkscape:connector-curvature="0"
     d="m 317.8,448.7 c 1.1,2.1 1.2,3.9 1.2,5 0,1.4 0,2.5 -0.8,3.6 -0.9,1.2 -2.4,1.5 -3,1.6"
     stroke-miterlimit="10"
     id="XMLID_112_" /><path
     style=""
     d="m 304.4,455 a 0.89999998,0.80000001 0 0 1 -0.9,0.8 0.89999998,0.80000001 0 0 1 -0.9,-0.8 0.89999998,0.80000001 0 0 1 0.9,-0.8 0.89999998,0.80000001 0 0 1 0.9,0.8 z"
     id="XMLID_111_" /><path
     style="fill:none;stroke:none;stroke-width:2;stroke-linecap:round;stroke-linejoin:round;stroke-miterlimit:10"
     inkscape:connector-curvature="0"
     d="m 306.9,458.8 c -0.5,-0.2 -1.2,-0.5 -1.9,-1.1 -0.9,-0.7 -1.4,-1.6 -1.7,-2.2"
     stroke-miterlimit="10"
     id="XMLID_110_" /><path
     style=""
     d="m 314.50001,455 a 0.89999998,0.80000001 0 0 1 -0.9,0.8 0.89999998,0.80000001 0 0 1 -0.9,-0.8 0.89999998,0.80000001 0 0 1 0.9,-0.8 0.89999998,0.80000001 0 0 1 0.9,0.8 z"
     id="XMLID_109_" /><path
     style="fill:none;stroke:none;stroke-width:2;stroke-linecap:round;stroke-linejoin:round;stroke-miterlimit:10"
     inkscape:connector-curvature="0"
     d="m 310.1,458.8 c 0.5,-0.2 1.2,-0.5 1.9,-1.1 0.9,-0.7 1.4,-1.6 1.7,-2.2"
     stroke-miterlimit="10"
     id="XMLID_108_" /><path
     style="fill:none;stroke:none;stroke-width:2;stroke-linecap:round;stroke-linejoin:round;stroke-miterlimit:10"
     inkscape:connector-curvature="0"
     d="m 302.9,420.3 c 0.3,1.2 0.7,2.7 0.8,4.4 0.2,2.4 0,4.4 -0.3,6"
     stroke-miterlimit="10"
     id="XMLID_107_" /><path
     style="fill:none;stroke:none;stroke-width:2;stroke-linecap:round;stroke-linejoin:round;stroke-miterlimit:10"
     inkscape:connector-curvature="0"
     d="m 314.9,420.3 c -0.5,1.2 -1,3 -1.2,5.1 -0.2,2.4 0.2,4.4 0.6,5.7"
     stroke-miterlimit="10"
     id="XMLID_106_" /></g>



        <g
   id="pic-2"><path
   style="fill:none;stroke:none;stroke-width:2;stroke-linecap:round;stroke-linejoin:round;stroke-miterlimit:10"
   d="m 330.79999,563.59998 41.90002,0"
   id="XMLID_234_" /><path
   style="fill:none;stroke:none;stroke-width:2;stroke-linecap:round;stroke-linejoin:round;stroke-miterlimit:10"
   inkscape:connector-curvature="0"
   d="m 271.5,509.3 c -1.3,1.2 -3.3,3.4 -4.3,6.5 -1.8,5.6 0.6,10.7 2.9,15.3 4.6,9.2 11.2,14.6 13,15.9 4.7,3.6 14.2,11 27.5,10.2 14.4,-0.8 23.5,-10.5 27,-14.3 5.4,-5.8 7.5,-11.2 8.7,-14.1 1.7,-4.6 3.4,-8.9 1.6,-13.4 -1.1,-2.7 -3,-4.4 -4.5,-5.5"
   stroke-miterlimit="10"
   id="XMLID_105_" /><path
   style="fill:none;stroke:none;stroke-width:2;stroke-linecap:round;stroke-linejoin:round;stroke-miterlimit:10"
   inkscape:connector-curvature="0"
   d="m 168.2,563.4 c 5.4,-8.6 9.1,-15.4 11.5,-20.3 3,-6.1 7.5,-11.3 10.3,-17.4 0.3,-0.6 1,-2.2 2.5,-3.4 2,-1.6 4.3,-1.4 8,-1.9 2.7,-0.3 5.3,-0.9 7.9,-1.1 7.6,-0.7 9.5,-1.5 25.1,-3.4 9.6,-1.2 19.2,-3.1 28.9,-4.2 0.9,-0.1 3,-0.5 5.5,-1.3 3.7,-1.2 6.4,-3 8.1,-4.3"
   stroke-miterlimit="10"
   id="XMLID_927_" /><path
   style="fill:none;stroke:none;stroke-width:2;stroke-linecap:round;stroke-linejoin:round;stroke-miterlimit:10"
   inkscape:connector-curvature="0"
   d="m 446.5,564.1 c -5.5,-8.6 -9.1,-15.4 -11.6,-20.2 -3,-6.1 -7.5,-11.3 -10.4,-17.4 -0.3,-0.6 -1,-2.2 -2.5,-3.4 -2,-1.6 -4.2,-1.4 -8,-1.9 -2.7,-0.3 -5.3,-0.9 -7.9,-1.1 -7.6,-0.7 -9.5,-1.5 -25.1,-3.4 -9.6,-1.2 -19.2,-3.1 -28.9,-4.2 -0.2,0 -0.6,-0.1 -1.1,-0.2 -1.5,-0.2 -2.8,-0.6 -4.3,-1.2 -2.6,-0.9 -4.8,-2 -6.2,-2.7"
   stroke-miterlimit="10"
   id="XMLID_920_" />

      <path
   style="fill:none;stroke:none;stroke-width:1.5"
   inkscape:connector-curvature="0"
   d="m 245.6,562.9 0,-0.7 0,-2 c 0,-0.1 0,-0.2 0,-0.4 -0.1,-0.1 -0.2,-0.1 -0.2,-0.1 0,0 -0.1,0.1 -0.1,0.1 -0.1,0.8 -0.3,1.6 -0.6,2.4 -0.1,0.2 -0.2,0.5 -0.3,0.7 -0.4,0.6 -1,1.2 -1.7,1.2 -1.1,0 -2.1,0 -3.2,0 -0.1,0 -0.1,0 -0.2,-0.1 0,-0.1 0,-0.2 0.1,-0.2 l 1,-1.6 0,-0.1 c 0.2,-0.2 0.3,-0.4 0.4,-0.6 0.9,-1.2 1.6,-2.5 2.5,-3.7 0,0 0.1,-0.1 0.1,-0.1 0.6,-1 1.4,-2 2,-3 0.1,-0.2 0.2,-0.3 0.3,-0.6 0,0 0,-0.1 -0.1,-0.1 -0.6,0 -1.9,0 -1.9,0 l -0.9,0 -2.8,0 c 0,0 -1.6,0 -2,0 -0.1,0 -0.1,0.2 -0.2,0.2 0,0.6 0,1.1 0,1.7 l 0,1.9 0,0.1 0.1,0.1 c 0.1,0.1 0.2,0.1 0.2,0.1 0,0 0.1,-0.1 0.1,-0.1 l 0,-0.1 c 0.1,-0.6 0.2,-1.2 0.6,-1.8 0.3,-0.6 0.9,-1.4 1.6,-1.5 0.8,0 1.6,-0.1 2.4,0 0.1,0 0.1,0.1 0.1,0.2 -0.6,1 -1.2,2 -1.9,3 0,0 0,0.1 -0.1,0.1 -0.7,1.1 -1.4,2.2 -2.2,3.3 -0.2,0.3 -0.5,0.7 -0.7,1.1 -0.5,0.7 -0.9,1.4 -1.3,2.1 -0.1,0.1 -0.2,0.2 -0.2,0.4 0.1,0.1 0.2,0.1 0.3,0.1 l 8.4,0 0.2,0 c 0.1,0 0.1,-0.1 0.1,-0.2 0.1,-0.7 0.1,-1.2 0.1,-1.8 z"
   id="path335"
   class="z-letter" /><path
   style="fill:none;stroke:none;stroke-width:1.5"
   inkscape:connector-curvature="0"
   d="m 245.6,551.2 0,-0.7 0,-2 c 0,-0.1 0,-0.2 0,-0.4 -0.1,-0.1 -0.2,-0.1 -0.2,-0.1 0,0 -0.1,0.1 -0.1,0.1 -0.1,0.8 -0.3,1.6 -0.6,2.4 -0.1,0.2 -0.2,0.5 -0.3,0.7 -0.4,0.6 -1,1.2 -1.7,1.2 -1.1,0 -2.1,0 -3.2,0 -0.1,0 -0.1,0 -0.2,-0.1 0,-0.1 0,-0.2 0.1,-0.2 l 1,-1.6 0,-0.1 c 0.2,-0.2 0.3,-0.4 0.4,-0.6 0.9,-1.2 1.6,-2.5 2.5,-3.7 0,0 0.1,-0.1 0.1,-0.1 0.6,-1 1.4,-2 2,-3 0.1,-0.2 0.2,-0.3 0.3,-0.6 0,0 0,-0.1 -0.1,-0.1 -0.6,0 -1.9,0 -1.9,0 l -0.9,0 -2.8,0 c 0,0 -1.6,0 -2,0 -0.1,0 -0.1,0.2 -0.2,0.2 0,0.6 0,1.1 0,1.7 l 0,1.9 0,0.1 0.1,0.1 c 0.1,0.1 0.2,0.1 0.2,0.1 0,0 0.1,-0.1 0.1,-0.1 l 0,-0.1 c 0.1,-0.6 0.2,-1.2 0.6,-1.8 0.3,-0.6 0.9,-1.4 1.6,-1.5 0.8,0 1.6,-0.1 2.4,0 0.1,0 0.1,0.1 0.1,0.2 -0.6,1 -1.2,2 -1.9,3 0,0 0,0.1 -0.1,0.1 -0.7,1.1 -1.4,2.2 -2.2,3.3 -0.2,0.3 -0.5,0.7 -0.7,1.1 -0.5,0.7 -0.9,1.4 -1.3,2.1 -0.1,0.1 -0.2,0.2 -0.2,0.4 0.1,0.1 0.2,0.1 0.3,0.1 l 8.4,0 0.2,0 c 0.1,0 0.1,-0.1 0.1,-0.2 0.1,-0.8 0.1,-1.3 0.1,-1.8 z"
   id="path339"
   class="z-letter" /><path
   style="fill:none;stroke:none;stroke-width:1.5"
   inkscape:connector-curvature="0"
   d="m 235.9,548.3 c -0.1,-0.1 -0.2,-0.1 -0.3,-0.1 -0.1,0 -0.1,0.1 -0.1,0.2 -0.1,0.8 -0.2,1.2 -0.6,2.2 -0.1,0.3 -0.2,0.5 -0.4,0.7 -0.4,0.6 -1,1.2 -1.7,1.2 l -3.2,0 c -0.1,0 -0.1,0.1 -0.2,0 0,-0.1 0,-0.1 0.1,-0.2 l 1.1,-1.6 c 0,0 0,0 0.1,0 0.1,-0.3 0.2,-0.4 0.4,-0.6 0.9,-1.3 1.7,-2.6 2.5,-3.9 0,-0.1 0.1,-0.2 0.1,-0.2 0,0 -0.1,0 -0.1,0 0,0 0.1,0 0.1,0 0.6,-0.9 1.3,-1.9 1.9,-2.9 0.1,-0.2 0.2,-0.3 0.3,-0.6 l -0.1,-0.1 c -0.6,0 -1.9,0 -1.9,0 l -0.9,0 -2.7,0 c 0,0 -1.5,0 -2,0 -0.1,0 -0.2,0.2 -0.2,0.2 0,0.6 -0.1,1.1 -0.1,1.7 l 0,1.2 0,0.7 0.2,0.1 c 0.1,0.1 0.2,0.1 0.3,0.1 0.1,0 0.1,-0.1 0.2,-0.1 0,-0.2 0,-0.6 0.1,-0.8 0.1,-0.4 0.3,-0.7 0.5,-1.1 0.3,-0.6 0.9,-1.4 1.7,-1.5 0.8,0 1.6,-0.1 2.4,0 0.1,0 0.1,0.2 0.1,0.2 -0.5,0.9 -1.3,2 -1.9,3 l 0,0 c 0,0 0,0 -0.1,0 -0.7,1.2 -1.5,2.2 -2.2,3.4 -0.2,0.3 -0.4,0.6 -0.6,0.9 -0.5,0.6 -0.9,1.4 -1.4,2.2 -0.1,0.1 -0.2,0.3 -0.2,0.4 0.1,0.1 0.2,0.2 0.3,0.2 l 8.4,0 0.2,-0.1 c 0.1,0 0.1,-0.2 0.1,-0.2 0,-0.6 0,-1.1 0,-1.6 l 0,-0.7 0,-1.9 c -0.2,-0.1 -0.2,-0.3 -0.2,-0.4 z"
   id="path337"
   class="z-letter" /><path
   style="fill:none;stroke:none;stroke-width:1.5"
   inkscape:connector-curvature="0"
   d="m 234.9,515.5 c -0.1,0.3 -0.2,0.4 -0.3,0.6 l 0,0 c 0,0.1 -0.1,0.2 -0.1,0.3 -0.4,0.6 -1,1.3 -1.7,1.3 l -3.2,0 c -0.1,0 -0.1,-0.1 -0.2,-0.1 0,-0.1 0,-0.2 0.1,-0.2 l 0.4,-0.6 c -0.7,0.1 -1.6,0.1 -2.3,0.1 -0.2,0.3 -0.4,0.6 -0.6,0.9 -0.1,0.1 -0.2,0.3 -0.2,0.4 0.1,0.1 0.2,0.2 0.3,0.2 l 8.5,0 0.2,-0.1 c 0.1,0 0.1,-0.2 0.1,-0.2 0,-0.6 0,-1.1 0,-1.6 l 0,-0.6 0,-0.2 c -0.3,-0.2 -0.6,-0.2 -1,-0.2 z"
   id="path349"
   class="z-letter" /><path
   style="fill:none;stroke:none;stroke-width:1.5"
   inkscape:connector-curvature="0"
   d="m 245.6,527.9 0,-0.7 0,-2 c 0,-0.1 0,-0.2 0,-0.4 -0.1,-0.1 -0.2,-0.1 -0.2,-0.1 0,0 -0.1,0.1 -0.1,0.1 -0.1,0.8 -0.3,1.6 -0.6,2.4 -0.1,0.2 -0.2,0.4 -0.3,0.6 -0.4,0.6 -1,1.2 -1.7,1.2 -1.1,0 -2.1,0 -3.2,0 -0.1,0 -0.1,0 -0.2,-0.1 0,-0.1 0,-0.2 0.1,-0.2 l 1,-1.6 0,-0.1 c 0.2,-0.2 0.3,-0.4 0.4,-0.6 0.9,-1.2 1.6,-2.5 2.5,-3.7 0,0 0.1,-0.1 0.1,-0.1 0.6,-1 1.4,-2 2,-3 0.1,-0.2 0.2,-0.3 0.3,-0.6 0,0 0,-0.1 -0.1,-0.1 -0.6,0 -1.9,0 -1.9,0 l -0.9,0 -2.8,0 c 0,0 -1.6,0 -2,0 -0.1,0 -0.1,0.2 -0.2,0.2 0,0.6 0,1.1 0,1.7 l 0,1.9 0,0.1 0.1,0.1 c 0.1,0.1 0.2,0.1 0.2,0.1 0,0 0.1,-0.1 0.1,-0.1 l 0,-0.1 c 0.1,-0.6 0.2,-1.2 0.6,-1.8 0.3,-0.6 0.9,-1.4 1.6,-1.5 0.8,0 1.6,-0.1 2.4,0 0.1,0 0.1,0.1 0.1,0.2 -0.6,1 -1.2,2 -1.9,3 0,0 0,0.1 -0.1,0.1 -0.7,1.1 -1.4,2.2 -2.2,3.3 -0.2,0.3 -0.5,0.7 -0.7,1.1 -0.5,0.7 -0.9,1.4 -1.3,2.1 -0.1,0.1 -0.2,0.2 -0.2,0.3 0.1,0.1 0.2,0.1 0.3,0.1 l 8.4,0 0.2,0 c 0.1,0 0.1,-0.1 0.1,-0.2 0.1,-0.5 0.1,-1 0.1,-1.6 z"
   id="path347"
   class="z-letter" /><path
   style="fill:none;stroke:none;stroke-width:1.5"
   inkscape:connector-curvature="0"
   d="m 235.9,536.5 c -0.1,-0.1 -0.2,-0.1 -0.3,-0.1 -0.1,0 -0.1,0.1 -0.1,0.2 -0.1,0.8 -0.2,1.2 -0.6,2.2 -0.1,0.3 -0.2,0.6 -0.4,0.9 -0.4,0.6 -1,1.3 -1.7,1.3 l -3.2,0 c -0.1,0 -0.1,-0.1 -0.2,-0.2 0,-0.1 0,-0.2 0.1,-0.2 l 1.1,-1.7 c 0,0 0,-0.1 0.1,-0.1 0.1,-0.3 0.2,-0.4 0.4,-0.6 0.9,-1.3 1.7,-2.6 2.5,-3.9 0,-0.1 0.1,-0.2 0.1,-0.2 0,0 -0.1,0 -0.1,0 0,0 0.1,0 0.1,0 0.6,-0.9 1.3,-1.9 1.9,-2.9 0.1,-0.2 0.2,-0.3 0.3,-0.6 l -0.1,-0.1 c -0.6,0 -1.9,0 -1.9,0 l -0.9,0 -2.7,0 c 0,0 -1.5,0 -2,0 -0.1,0 -0.2,0.2 -0.2,0.2 0,0.6 -0.1,1.1 -0.1,1.7 l 0,1.2 0,0.7 0.2,0.1 c 0.1,0.1 0.2,0.1 0.3,0.1 0.1,0 0.1,-0.1 0.2,-0.1 0,-0.2 0,-0.6 0.1,-0.9 0.1,-0.3 0.3,-0.7 0.5,-1 0.3,-0.6 0.9,-1.4 1.7,-1.5 0.8,0 1.6,-0.1 2.4,0 0.1,0 0.1,0.1 0.1,0.2 -0.5,0.9 -1.1,1.7 -1.6,2.5 l 0,0 c -0.1,0.2 -0.2,0.4 -0.3,0.4 -0.7,1.2 -1.5,2.3 -2.2,3.4 -0.2,0.3 -0.4,0.6 -0.6,0.9 -0.5,0.6 -0.9,1.5 -1.4,2.2 -0.1,0.1 -0.2,0.3 -0.2,0.4 0.1,0.1 0.2,0.2 0.3,0.2 l 8.4,0 0.2,-0.1 c 0.1,0 0.1,-0.2 0.1,-0.2 0,-0.6 0,-1.1 0,-1.6 l 0,-0.6 0,-1.9 c -0.3,0 -0.3,-0.2 -0.3,-0.3 z"
   id="path341"
   class="z-letter" /><path
   style="fill:none;stroke:none;stroke-width:1.5"
   inkscape:connector-curvature="0"
   d="m 245.6,539.4 0,-0.7 0,-2 c 0,-0.1 0,-0.2 0,-0.4 -0.1,-0.1 -0.2,-0.1 -0.2,-0.1 0,0 -0.1,0.1 -0.1,0.1 -0.1,0.8 -0.3,1.6 -0.6,2.4 -0.1,0.2 -0.2,0.5 -0.3,0.7 -0.4,0.6 -1,1.2 -1.7,1.2 -1.1,0 -2.1,0 -3.2,0 -0.1,0 -0.1,0 -0.2,-0.1 0,-0.1 0,-0.2 0.1,-0.2 l 1,-1.6 0,-0.1 c 0.2,-0.2 0.3,-0.4 0.4,-0.6 0.9,-1.2 1.6,-2.5 2.5,-3.7 0,0 0.1,-0.1 0.1,-0.1 0.6,-1 1.4,-2 2,-3 0.1,-0.2 0.2,-0.3 0.3,-0.6 0,0 0,-0.1 -0.1,-0.1 -0.6,0 -1.9,0 -1.9,0 l -0.9,0 -2.8,0 c 0,0 -1.6,0 -2,0 -0.1,0 -0.1,0.2 -0.2,0.2 0,0.6 0,1.1 0,1.7 l 0,1.9 0,0.1 0.1,0.1 c 0.1,0.1 0.2,0.1 0.2,0.1 0,0 0.1,-0.1 0.1,-0.1 l 0,-0.1 c 0.1,-0.6 0.2,-1.2 0.6,-1.8 0.3,-0.6 0.9,-1.4 1.6,-1.5 0.8,0 1.6,-0.1 2.4,0 0.1,0 0.1,0.1 0.1,0.2 -0.6,1 -1.2,2 -1.9,3 0,0 0,0.1 -0.1,0.1 -0.7,1.1 -1.4,2.2 -2.2,3.3 -0.2,0.3 -0.5,0.7 -0.7,1.1 -0.5,0.7 -0.9,1.4 -1.3,2.1 -0.1,0.1 -0.2,0.2 -0.2,0.4 0.1,0.1 0.2,0.1 0.3,0.1 l 8.4,0 0.2,0 c 0.1,0 0.1,-0.1 0.1,-0.2 0.1,-0.8 0.1,-1.3 0.1,-1.8 z"
   id="path343"
   class="z-letter" /><path
   style="fill:none;stroke:none;stroke-width:1.5"
   inkscape:connector-curvature="0"
   d="m 235.9,525.1 c -0.1,-0.1 -0.2,-0.1 -0.3,-0.1 -0.1,0 -0.1,-0.1 -0.1,0 -0.1,0.8 -0.2,1.7 -0.6,2 -0.1,0.3 -0.2,0.6 -0.4,0.9 -0.4,0.6 -1,1.3 -1.7,1.3 l -3.2,0 c -0.1,0 -0.1,0.1 -0.2,0 0,-0.1 0,-0.1 0.1,-0.2 l 1.1,-1.8 c 0,0 0.3,-0.5 0.4,-0.6 0.9,-1.3 1.7,-2.5 2.5,-3.8 0,-0.1 0.1,-0.1 0.1,-0.2 l 0,0 c 0.6,-0.9 1.3,-1.9 1.9,-2.9 0.1,-0.2 0.2,-0.3 0.3,-0.6 l -0.1,-0.1 c -0.6,0 -1.9,0 -1.9,0 l -0.9,0 -2.7,0 c 0,0 -1.5,0 -2,0 -0.1,0 -0.2,0.2 -0.2,0.2 0,0.6 -0.1,1.1 -0.1,1.7 l 0,1.2 0,0.7 0.2,0.1 c 0.1,0.1 0.2,0.1 0.3,0.1 0.1,0 0.1,-0.1 0.2,-0.1 0,-0.2 0.1,-0.6 0.1,-0.9 0.1,-0.3 0.3,-0.6 0.4,-0.9 0.3,-0.6 0.9,-1.4 1.7,-1.5 0.8,0 1.6,-0.1 2.4,0 0.1,0 0.1,0.1 0.1,0.2 -0.5,0.9 -1.1,1.7 -1.6,2.5 l 0,0 c -0.1,0.2 -0.2,0.3 -0.3,0.5 -0.7,1.2 -1.5,2.2 -2.2,3.3 -0.2,0.3 -1.6,2.4 -2,3.1 -0.1,0.1 -0.2,0.4 -0.2,0.5 0.1,0.1 0.2,0.2 0.3,0.2 l 8.4,0 0.2,-0.1 c 0.1,0 0.1,-0.2 0.1,-0.2 0,-0.6 0,-1.1 0,-1.6 l 0,-0.5 0,-0.5 0,-1.6 c -0.1,-0.1 -0.1,-0.3 -0.1,-0.3 z"
   id="path345"
   class="z-letter" /><path
   style="fill:none;stroke:none;stroke-width:1.5"
   inkscape:connector-curvature="0"
   d="m 245.6,516.1 0,-0.7 0,-1.7 c 0,0 -0.3,0 -0.4,-0.1 -0.1,0.6 -0.2,1.2 -0.5,1.7 -0.1,0.2 -0.2,0.4 -0.3,0.6 -0.4,0.6 -1,1.2 -1.7,1.2 -1.1,0 -2.1,0 -3.2,0 -0.1,0 -0.1,0 -0.2,-0.1 0,-0.1 0,-0.2 0.1,-0.2 l 1,-1.6 c -0.7,0 -1.5,0 -2.2,0 -0.5,0.6 -0.9,1.4 -1.3,2 -0.1,0.1 -0.2,0.2 -0.2,0.3 0.1,0.1 0.2,0.1 0.3,0.1 l 8.4,0 0.2,0 c 0.1,0 0.1,-0.1 0.1,-0.2 -0.1,-0.2 -0.1,-0.7 -0.1,-1.3 z"
   id="path351"
   class="z-letter" /><path
   style="fill:none;stroke:none;stroke-width:1.5"
   inkscape:connector-curvature="0"
   d="m 235.9,560.1 c -0.1,-0.1 -0.2,-0.1 -0.3,-0.1 -0.1,0 -0.1,-0.1 -0.1,0 -0.1,0.8 -0.2,1.8 -0.6,2.1 -0.1,0.3 -0.2,0.6 -0.4,0.9 -0.4,0.6 -1,1.3 -1.7,1.3 l -3.2,0 c -0.1,0 -0.1,0.1 -0.2,0 0,-0.1 0,-0.1 0.1,-0.2 0,0 5.5,-8.3 6.1,-9.2 0.1,-0.2 0.2,-0.3 0.3,-0.6 l -0.1,-0.1 c -0.6,0 -1.9,0 -1.9,0 l -0.9,0 -2.7,0 c 0,0 -1.5,0 -2,0 -0.1,0 -0.2,0.2 -0.2,0.2 0,0.6 -0.1,1.1 -0.1,1.7 l 0,0.7 0,0.5 0,0.7 0.2,0.1 c 0.1,0.1 0.2,0.1 0.3,0.1 0.1,0 0.1,-0.1 0.2,-0.1 0,-0.2 0,-0.5 0,-0.7 l 0,0 0,0 c 0.1,-0.4 0.3,-0.7 0.5,-1.1 0.3,-0.6 0.9,-1.4 1.7,-1.5 0.8,0 1.6,-0.1 2.4,0 0.1,0 0.1,0 0.1,0.1 -0.5,0.9 -5.7,8.7 -6.1,9.5 -0.1,0.1 -0.2,0.2 -0.2,0.4 0.1,0.1 0.2,0.1 0.3,0.1 l 8.4,0 0.2,0.1 c 0.1,-0.1 0.1,-0.1 0.1,-0.2 0,-0.6 0,-1 0,-1.6 l 0,-1.2 0,-1.6 c -0.2,-0.1 -0.2,-0.2 -0.2,-0.3 z"
   id="path333"
   class="z-letter" /></g>


        <g
   id="pic-3-mouse"><path
     style="fill:none;stroke:none;stroke-width:2;stroke-linecap:round;stroke-linejoin:round;stroke-miterlimit:10"
     inkscape:connector-curvature="0"
     id="XMLID_446_"
     stroke-miterlimit="10"
     d="m 361.6,506.3 c 3.4,-3.3 9.4,-2.7 13.1,0.2 4.5,3.4 4.2,9.2 4.2,9.8" /><path
     style="fill:none;stroke:none;stroke-width:2;stroke-linecap:round;stroke-linejoin:round;stroke-miterlimit:10"
     inkscape:connector-curvature="0"
     id="XMLID_445_"
     stroke-miterlimit="10"
     d="m 356.4,533.2 c 0.3,-1.2 1,-2.9 2.4,-4.2 4,-3.8 10.7,-1.9 11.1,-3.4 0.4,-1.6 -7.9,-3.1 -10.2,-9.1 -1.2,-3.2 -0.8,-7.5 1.9,-10.1" /><path
     style="fill:none;stroke:none;stroke-width:2;stroke-linecap:round;stroke-linejoin:round;stroke-miterlimit:10"
     inkscape:connector-curvature="0"
     id="Border_20_"
     stroke-miterlimit="10"
     d="m 340,547.4 c 0.1,-0.8 0.3,-1.6 0.6,-2.7 0.5,-1.5 1.6,-4.8 4.7,-7.6 0.9,-0.9 5.3,-4.8 11.5,-4 6.5,0.9 9.6,6.5 10.2,7.5 0.4,0.8 2,3.7 2,7.5 0,1.6 -0.3,2.5 -0.7,4.1" /><path
     style="fill:none;stroke:none;stroke-width:2;stroke-linecap:round;stroke-linejoin:round;stroke-miterlimit:10"
     inkscape:connector-curvature="0"
     id="Scroll_3_"
     stroke-miterlimit="10"
     d="m 357.2,540.6 c -0.5,2.1 0,2.9 -0.7,3.7 -0.5,0.5 -1.2,0.8 -2,0.6 -0.8,-0.1 -1.4,-0.7 -1.7,-1.4 -0.4,-1 0.4,-1.5 0.6,-3.4 0.2,-1.6 -0.3,-1.9 0.1,-2.7 0.4,-0.7 1.4,-1.6 2.4,-1.3 1,0.2 1.6,1.1 1.9,1.9 0.2,0.6 -0.2,0.9 -0.6,2.6 z" /><path
     style="fill:none;stroke:none;stroke-width:2;stroke-linecap:round;stroke-linejoin:round;stroke-miterlimit:10"
     inkscape:connector-curvature="0"
     id="Border_19_"
     stroke-miterlimit="10"
     d="m 368.2,552.4 c -0.1,0.4 -0.2,0.9 -0.3,1.3 -0.5,2.2 -1.1,5.5 -1.1,9.7" /><path
     style="fill:none;stroke:none;stroke-width:2;stroke-linecap:round;stroke-linejoin:round;stroke-miterlimit:10"
     inkscape:connector-curvature="0"
     id="Border_18_"
     stroke-miterlimit="10"
     d="m 337,563.5 c 1.6,-4.2 2.2,-7.7 2.5,-10.2 0.3,-2.7 0.2,-4.3 0.5,-5.9" /><path
     style="fill:none;stroke:none;stroke-width:2;stroke-linecap:round;stroke-linejoin:round;stroke-miterlimit:10"
     d="m 354.5,544.79999 -0.89999,5"
     id="XMLID_444_" /><path
     style="fill:none;stroke:none;stroke-width:2;stroke-linecap:round;stroke-linejoin:round;stroke-miterlimit:10"
     d="m 340,547.40002 28.20001,5"
     id="Middle_line_2_" /></g>

        <g
   id="pic-4-glasses"><path
     style="fill:none;stroke:none;stroke-width:2;stroke-linecap:round;stroke-linejoin:round;stroke-miterlimit:10"
     inkscape:connector-curvature="0"
     id="XMLID_673_"
     stroke-miterlimit="10"
     d="m 314.9,420.3 c -0.5,1.2 -1,3 -1.2,5.1 -0.2,2.4 0.2,4.4 0.6,5.7" /><path
     style="fill:none;stroke:none;stroke-width:2;stroke-linecap:round;stroke-linejoin:round;stroke-miterlimit:10"
     inkscape:connector-curvature="0"
     id="XMLID_665_"
     stroke-miterlimit="10"
     d="m 303.4,425.3 c 0.7,-0.4 2.5,-1.4 5.1,-1.4 2.6,0 4.4,1.1 5.1,1.6" /><path
     style="fill:none;stroke:none;stroke-width:2;stroke-linecap:round;stroke-linejoin:round;stroke-miterlimit:10"
     inkscape:connector-curvature="0"
     id="XMLID_664_"
     stroke-miterlimit="10"
     d="m 280.9,418.3 c -2.1,0 -4.1,0.1 -6.1,0.2 -0.3,0.1 -1.3,0.4 -2,1.6 -0.5,0.9 -0.6,1.7 -0.6,2 -0.3,1.6 -0.6,3.5 -0.6,5.7 0,2 0.2,3.8 0.6,5.2 0.1,0.4 0.2,1.2 0.7,1.9 0.5,0.8 1.1,1.2 1.6,1.4 0.1,0.1 0.2,0.1 0.3,0.1 3.6,0.2 7.4,0.3 11.5,0.2 4.3,-0.1 8.3,-0.4 12.1,-0.8 0.5,-0.1 1.9,-0.4 3.2,-1.7 0.9,-0.9 1.2,-2 1.4,-2.5 0.2,-1.3 0.4,-3 0.4,-5 -0.1,-1.9 -0.3,-3.7 -0.6,-5 -0.2,-0.4 -0.5,-1.2 -1.2,-1.8 -0.7,-0.6 -1.6,-0.9 -1.9,-0.9 -3.4,-0.3 -7.1,-0.6 -10.8,-0.7 -2.7,-0.1 -7.1,-0.1 -9.6,-0.1" /><path
     style="fill:none;stroke:none;stroke-width:2;stroke-linecap:round;stroke-linejoin:round;stroke-miterlimit:10"
     inkscape:connector-curvature="0"
     id="XMLID_663_"
     stroke-miterlimit="10"
     d="m 278,426 c 0.9,-0.9 3.3,-3.7 7.6,-4.6 5.3,-1.2 9.5,1.2 10.5,1.7" /><path
     style="fill:none;stroke:none;stroke-width:2;stroke-linecap:round;stroke-linejoin:round;stroke-miterlimit:10"
     inkscape:connector-curvature="0"
     id="XMLID_662_"
     stroke-miterlimit="10"
     d="m 286,433.2 c 2.3,0.3 5.5,0.3 8.9,-0.7 0.7,-0.2 1.5,-0.5 2.1,-0.8" /><path
     style="fill:none;stroke:none;stroke-width:2;stroke-linecap:round;stroke-linejoin:round;stroke-miterlimit:10"
     d="m 291.99999,427.39999 a 3.2,3.5999999 0 0 1 -3.2,3.6 3.2,3.5999999 0 0 1 -3.2,-3.6 3.2,3.5999999 0 0 1 3.2,-3.6 3.2,3.5999999 0 0 1 3.2,3.6 z"
     id="XMLID_661_" /><path
     style="fill:none;stroke:none;stroke-width:2;stroke-linecap:round;stroke-linejoin:round;stroke-miterlimit:10"
     inkscape:connector-curvature="0"
     id="XMLID_660_"
     stroke-miterlimit="10"
     d="m 337,418.3 c 1.9,0 3.8,0.1 5.6,0.2 0.3,0.1 1.3,0.4 2,1.6 0.5,0.9 0.6,1.7 0.5,2 0.3,1.6 0.6,3.5 0.5,5.7 0,2 -0.2,3.8 -0.5,5.2 -0.1,0.4 -0.2,1.2 -0.7,1.9 -0.6,0.9 -1.4,1.4 -1.8,1.6 -3.6,0.2 -7.4,0.3 -11.5,0.2 -4.3,-0.1 -8.3,-0.4 -12.1,-0.8 -0.5,-0.1 -1.9,-0.4 -3.2,-1.7 -0.9,-0.9 -1.2,-2 -1.4,-2.5 -0.2,-1.3 -0.4,-3 -0.4,-5 0.1,-1.9 0.3,-3.7 0.6,-5 0.2,-0.4 0.5,-1.2 1.2,-1.8 0.7,-0.6 1.6,-0.9 1.9,-0.9 3.4,-0.3 7,-0.6 10.8,-0.7 2.8,-0.1 7.3,-0.1 9.9,-0.1" /><path
     style="fill:none;stroke:none;stroke-width:2;stroke-linecap:round;stroke-linejoin:round;stroke-miterlimit:10"
     inkscape:connector-curvature="0"
     id="XMLID_659_"
     stroke-miterlimit="10"
     d="m 278.4,429.1 c 0.6,-0.8 3.7,-4.7 9,-5.3 4.7,-0.6 8,1.7 9,2.4" /><path
     style="fill:none;stroke:none;stroke-width:2;stroke-linecap:round;stroke-linejoin:round;stroke-miterlimit:10"
     inkscape:connector-curvature="0"
     id="XMLID_658_"
     stroke-miterlimit="10"
     d="m 279.7,427.7 c 0.4,0.5 1.1,1.1 1.9,1.7 2.5,1.7 5.2,1.7 6.5,1.7 3.6,0 6.2,-1.6 7.4,-2.4" /><path
     style="fill:none;stroke:none;stroke-width:2;stroke-linecap:round;stroke-linejoin:round;stroke-miterlimit:10"
     inkscape:connector-curvature="0"
     id="XMLID_657_"
     stroke-miterlimit="10"
     d="m 339.7,426 c -0.8,-0.9 -3.3,-3.7 -7.6,-4.6 -5.4,-1.2 -9.5,1.2 -10.5,1.7" /><path
     style="fill:none;stroke:none;stroke-width:2;stroke-linecap:round;stroke-linejoin:round;stroke-miterlimit:10"
     inkscape:connector-curvature="0"
     id="XMLID_656_"
     stroke-miterlimit="10"
     d="m 331.7,433.2 c -2.3,0.3 -5.5,0.3 -8.9,-0.7 -0.7,-0.2 -1.4,-0.5 -2.1,-0.8" /><path
     style="fill:none;stroke:none;stroke-width:2;stroke-linecap:round;stroke-linejoin:round;stroke-miterlimit:10"
     d="m 332.59999,427.20001 a 3.3,3.4000001 0 0 1 -3.3,3.4 3.3,3.4000001 0 0 1 -3.3,-3.4 3.3,3.4000001 0 0 1 3.3,-3.4 3.3,3.4000001 0 0 1 3.3,3.4 z"
     id="XMLID_655_" /><path
     style="fill:none;stroke:none;stroke-width:2;stroke-linecap:round;stroke-linejoin:round;stroke-miterlimit:10"
     inkscape:connector-curvature="0"
     id="XMLID_654_"
     stroke-miterlimit="10"
     d="m 340,428.8 c -0.6,-0.7 -3.8,-4.3 -9.4,-5 -4.8,-0.5 -8.4,1.6 -9.3,2.2" /><path
     style="fill:none;stroke:none;stroke-width:2;stroke-linecap:round;stroke-linejoin:round;stroke-miterlimit:10"
     inkscape:connector-curvature="0"
     id="XMLID_653_"
     stroke-miterlimit="10"
     d="m 338.8,427.5 c -0.4,0.5 -1.1,1.1 -2,1.6 -2.7,1.6 -5.4,1.6 -6.8,1.6 -3.7,0 -6.5,-1.5 -7.8,-2.3" /><path
     style="fill:none;stroke:none;stroke-width:2;stroke-linecap:round;stroke-linejoin:round;stroke-miterlimit:10"
     inkscape:connector-curvature="0"
     id="XMLID_652_"
     stroke-miterlimit="10"
     d="m 276,424.4 c 0.1,-0.3 0.3,-1 1.1,-1.6 0.6,-0.6 1.3,-0.7 1.6,-0.8" /><path
     style="fill:none;stroke:none;stroke-width:2;stroke-linecap:round;stroke-linejoin:round;stroke-miterlimit:10"
     inkscape:connector-curvature="0"
     id="XMLID_651_"
     stroke-miterlimit="10"
     d="m 274.1,423.8 c 0.1,-0.5 0.4,-1.4 1.2,-2.3 1,-1.1 2.2,-1.4 2.6,-1.6" /><path
     style="fill:none;stroke:none;stroke-width:2;stroke-linecap:round;stroke-linejoin:round;stroke-miterlimit:10"
     inkscape:connector-curvature="0"
     id="XMLID_601_"
     stroke-miterlimit="10"
     d="m 341.5,424.4 c -0.1,-0.3 -0.3,-1 -1.1,-1.6 -0.6,-0.6 -1.4,-0.7 -1.7,-0.8" /><path
     style="fill:none;stroke:none;stroke-width:2;stroke-linecap:round;stroke-linejoin:round;stroke-miterlimit:10"
     inkscape:connector-curvature="0"
     id="XMLID_600_"
     stroke-miterlimit="10"
     d="m 343.3,423.8 c -0.1,-0.5 -0.4,-1.4 -1.2,-2.3 -1,-1.1 -2.2,-1.4 -2.6,-1.6" /><path
     inkscape:connector-curvature="0"
     d="m 270.4,421.4 0,0 c -0.9,-0.2 -1.6,-0.2 -2.2,-0.1 l 0,0 c -0.2,0 -0.4,0 -0.7,0.1 -0.2,0.1 -0.5,0.2 -0.7,0.2 -0.5,0.2 -0.9,0.6 -1.6,1.1 0,0 0,0 -0.1,0 -0.3,0.2 -0.9,0.6 -1.6,0.9 0,0.9 -0.1,1.9 -0.1,2.8 0.6,-0.1 1.2,-0.2 1.7,-0.4 0.5,-0.1 0.9,-0.2 1.4,-0.3 0.3,-0.1 0.6,-0.2 1,-0.2 l 0,0 c 0.4,-0.1 0.9,-0.1 1.6,0 0.1,0 0.2,0 0.2,0 1,0.2 1.7,0.6 2.1,0.9 0.2,-1.6 0.4,-3 0.6,-4.6 -0.5,0 -1,-0.2 -1.6,-0.4 z"
     id="glasses-part-2"
     class="glasses-part" /><path
     inkscape:connector-curvature="0"
     d="m 354.5,423.2 c -0.5,-0.3 -0.6,-0.5 -0.7,-0.4 l 0,0 c 0,0 0,0 0,-0.1 -0.9,-0.4 -1.3,-0.8 -1.9,-1.1 -0.2,-0.1 -0.5,-0.2 -0.8,-0.2 -0.3,-0.1 -0.6,-0.1 -0.9,-0.1 l 0,0 c -0.7,-0.1 -1.6,-0.1 -2.6,0.1 0,0 0,0 -0.1,0 -0.8,0.1 -1.4,0.3 -2,0.6 0.2,1.6 0.4,3 0.7,4.6 0.5,-0.3 1.4,-0.7 2.5,-0.9 0.1,0 0.2,0 0.3,0 0.7,-0.1 1.4,0 1.9,0 l 0,0 c 0.4,0.1 0.8,0.2 1.2,0.2 0.6,0.1 1.1,0.2 1.7,0.3 0.7,0.1 1.4,0.2 2,0.4 0.1,-0.9 0.2,-1.6 0.2,-2.5 -0.4,-0.2 -0.9,-0.4 -1.5,-0.9 z"
     id="glasses-part-1"
     class="glasses-part" /></g>

        <g
   id="pic-5-second-hat">
    <path
   class="hat-fill"
   id="XMLID_1972_"
   style="fill:none;stroke:none;stroke-width:2;stroke-linecap:round;stroke-linejoin:round;stroke-miterlimit:10"
   d="m 370.2,354.3 -15.5,37.4 -63,-29 16,-36.2" /><path
   id="XMLID_1971_"
   stroke-miterlimit="10"
   d="m 307.7,326.5 c 0,0 9.3,7.8 12,10.4 2.3,2.1 4.8,4.1 7,6.3 2,1.9 7.4,5.3 7.4,5.3 0,0 2,0.8 2.7,1 3.3,1 5.8,1.2 7.9,1.3 3,0.2 6,0.9 8.9,1.2 3.8,0.5 16.4,2.4 16.4,2.4"
   inkscape:connector-curvature="0"
   style="fill:none;stroke:none;stroke-width:2;stroke-linecap:round;stroke-linejoin:round;stroke-miterlimit:10" /><path
   id="XMLID_1970_"
   stroke-miterlimit="10"
   d="M 288.6,310.3"
   inkscape:connector-curvature="0"
   style="fill:none;stroke:none;stroke-width:2;stroke-linecap:round;stroke-linejoin:round;stroke-miterlimit:10" />
          <path
   d="m 353.7,352 c -3,-0.4 -5.9,-1 -8.9,-1.2 -2.2,-0.2 -4.7,-0.3 -7.9,-1.3 -0.7,-0.2 -2.7,-1 -2.7,-1 0,0 -5.3,-3.5 -7.4,-5.3 -2.3,-2.1 -4.8,-4.1 -7,-6.3 -2.7,-2.5 -12,-10.4 -12,-10.4 l -1.6,3.7 -4,9.1 -4,9.2 -3.5,7.9 -2.8,6.4 63,29 2.6,-6.2 3.6,-8.6 3.9,-9.5 3.8,-9.2 1.6,-3.8 c -0.2,-0.2 -12.9,-2 -16.7,-2.5 z"
   style="fill:none;stroke:none;stroke-width:2;"
   id="path2219"
   inkscape:connector-curvature="0" /><path
   id="white-fill"
   class="white-fill"
   stroke-miterlimit="10"
   d="m 346.8,318.5 c 15.2,13.2 30.4,26.4 45.6,39.6 -19.5,-3.2 -39.1,-6.3 -58.7,-9.4 -15.1,-12.8 -30.1,-25.7 -45.1,-38.6 19.5,2.9 38.8,5.7 58.2,8.4"
   inkscape:connector-curvature="0"
   style="fill:none;stroke:none;stroke-width:2;stroke-linecap:round;stroke-linejoin:round;stroke-miterlimit:10" /><path
   style="fill:none;stroke:none;stroke-width:2;stroke-linecap:round;stroke-linejoin:round;stroke-miterlimit:10"
   d="M 338.39999,332.79999 378.10001,354.5"
   id="XMLID_1968_" /><path
   style="fill:none;stroke:none;stroke-width:2;stroke-linecap:round;stroke-linejoin:round;stroke-miterlimit:10"
   d="m 378.10001,354.5 -2.5,8.39999"
   id="XMLID_1967_" /><path
   style="fill:none;stroke:none;stroke-width:2;stroke-linecap:round;stroke-linejoin:round;stroke-miterlimit:10"
   d="m 375.60001,363.20001 -5.20002,18.09998"
   id="XMLID_1966_" />

          <path
   style="fill:none;stroke:none;stroke-width:2;stroke-linecap:round;stroke-linejoin:round;stroke-miterlimit:10"
   d="m 372.4,381.9 c -0.2,-0.4 -0.4,-0.7 -0.5,-0.7 -0.2,-0.2 -0.3,-0.2 -0.5,-0.4 -0.3,-0.2 -0.9,-0.5 -1.6,-0.5 -0.4,-0.1 -1.1,-0.1 -1.7,0.4 -0.6,0.4 -0.9,1 -1,1.4 -0.1,0.3 -0.1,0.6 -0.1,0.6 -0.2,1.1 -0.5,2.1 -0.8,3.3 -0.1,0.4 -0.2,0.9 -0.3,1.3 -0.3,1 -0.6,2 -0.9,3 -0.4,1.2 -0.8,2.4 -1.2,3.6 -0.1,0.4 -0.2,0.7 -0.4,1 -0.2,0.7 -0.5,1.1 -0.7,1.4 -0.2,0.2 -0.4,0.4 -0.4,0.6 0,0.4 0.6,0.6 1.2,0.8 0.4,0.2 0.9,0.3 1.6,0.4 0.7,0.2 1.5,0.4 2.2,0.7 0.9,0.1 1.7,0.4 2.2,0.5 0.7,0.2 1.2,0.4 1.4,0.2 0.2,-0.2 0,-0.6 -0.1,-1.4 -0.1,-0.6 0,-1.2 0,-1.5 0,-0.2 0,-0.4 0,-0.6 0,-1.1 0.1,-2.3 0.2,-3.5 0.1,-0.6 0.2,-1.3 0.2,-1.9 0.2,-1 0.3,-2 0.5,-2.9 0.2,-1.2 0.5,-2.2 0.8,-3.2 0,-0.1 0.1,-0.2 0.1,-0.4 0.2,-0.7 0.1,-1.4 -0.2,-2.2 z"
   id="hat-fill"
   inkscape:connector-curvature="0" /></g>


        <g
   id="pic-6-pencils"><path
     style="fill:none;stroke:none;stroke-width:2;stroke-linecap:round;stroke-linejoin:round;stroke-miterlimit:10"
     d="m 209.60001,564.20001 41.19999,0"
     id="XMLID_1372_" /><path
     style="fill:none;stroke:none;stroke-width:2;stroke-linecap:round;stroke-linejoin:round;stroke-miterlimit:10"
     d="m 213.89999,563.90002 2,-18.40002"
     id="XMLID_1371_" /><path
     style="fill:none;stroke:none;stroke-width:2;stroke-linecap:round;stroke-linejoin:round;stroke-miterlimit:10"
     d="m 215.89999,545.5 5.20002,-8"
     id="XMLID_1370_" /><path
     style="fill:none;stroke:none;stroke-width:2;stroke-linecap:round;stroke-linejoin:round;stroke-miterlimit:10"
     d="m 221.10001,537.5 2.79998,9.59998"
     id="XMLID_1369_" /><path
     style="fill:none;stroke:none;stroke-width:2;stroke-linecap:round;stroke-linejoin:round;stroke-miterlimit:10"
     d="m 223.89999,547.09998 -2.29998,16.80004"
     id="XMLID_1368_" /><path
     style="fill:none;stroke:none;stroke-width:2;stroke-linecap:round;stroke-linejoin:round;stroke-miterlimit:10"
     d="M 215.89999,545.70001 217.5,548.59998"
     id="XMLID_1367_" /><path
     style="fill:none;stroke:none;stroke-width:2;stroke-linecap:round;stroke-linejoin:round;stroke-miterlimit:10"
     d="m 217.5,548.59998 2.10001,-2.39997"
     id="XMLID_1366_" /><path
     style="fill:none;stroke:none;stroke-width:2;stroke-linecap:round;stroke-linejoin:round;stroke-miterlimit:10"
     d="M 219.60001,546.20001 220.5,548.59998"
     id="XMLID_1365_" /><path
     style="fill:none;stroke:none;stroke-width:2;stroke-linecap:round;stroke-linejoin:round;stroke-miterlimit:10"
     d="m 220.5,548.59998 3.10001,-1.69996"
     id="XMLID_1364_" /><path
     inkscape:connector-curvature="0"
     id="XMLID_1363_"
     d="m 220.9,537.6 0,0 c -0.6,0.9 -1.1,1.8 -1.6,2.7 0.1,0.1 0.6,0.7 1.4,0.7 0.7,0 1.2,-0.4 1.2,-0.5 -0.3,-0.9 -0.7,-1.9 -1,-2.9 z" /><path
     style="fill:none;stroke:none;stroke-width:2;stroke-linecap:round;stroke-linejoin:round;stroke-miterlimit:10"
     inkscape:connector-curvature="0"
     id="XMLID_1362_"
     stroke-miterlimit="10"
     d="m 224,547.4 c 0.3,-0.6 0.6,-1.2 0.9,-1.7 0.2,-0.4 0.4,-0.7 0.6,-1.1" /><path
     style="fill:none;stroke:none;stroke-width:2;stroke-linecap:round;stroke-linejoin:round;stroke-miterlimit:10"
     d="m 225.5,544.5 2.89999,6.70001"
     id="XMLID_1361_" /><path
     style="fill:none;stroke:none;stroke-width:2;stroke-linecap:round;stroke-linejoin:round;stroke-miterlimit:10"
     d="m 228.39999,551.20001 -0.5,12.20001"
     id="XMLID_1360_" /><path
     style="fill:none;stroke:none;stroke-width:2;stroke-linecap:round;stroke-linejoin:round;stroke-miterlimit:10"
     d="m 223.60001,552.70001 1.5,-1.79999"
     id="XMLID_1359_" /><path
     style="fill:none;stroke:none;stroke-width:2;stroke-linecap:round;stroke-linejoin:round;stroke-miterlimit:10"
     d="M 225.10001,550.90002 226,552.5"
     id="XMLID_1358_" /><path
     style="fill:none;stroke:none;stroke-width:2;stroke-linecap:round;stroke-linejoin:round;stroke-miterlimit:10"
     d="m 226,552.5 2.2,-1.40002"
     id="XMLID_1357_" /><path
     inkscape:connector-curvature="0"
     id="XMLID_1356_"
     d="m 225.4,544.7 0,0 c -0.4,0.7 -0.7,1.4 -1.1,2 0.1,0.1 0.5,0.5 1.2,0.4 0.6,-0.1 0.9,-0.4 0.9,-0.5 -0.3,-0.6 -0.7,-1.3 -1,-1.9 z" /><path
     style="fill:none;stroke:none;stroke-width:2;stroke-linecap:round;stroke-linejoin:round;stroke-miterlimit:10"
     inkscape:connector-curvature="0"
     id="XMLID_1355_"
     stroke-miterlimit="10"
     d="m 232,563.8 c -0.4,-3.7 -0.8,-7.4 -1.2,-11.2" /><path
     style="fill:none;stroke:none;stroke-width:2;stroke-linecap:round;stroke-linejoin:round;stroke-miterlimit:10"
     d="M 230.89999,552.70001 233.2,546.40002"
     id="XMLID_1354_" /><path
     style="fill:none;stroke:none;stroke-width:2;stroke-linecap:round;stroke-linejoin:round;stroke-miterlimit:10"
     d="M 233.2,546.40002 236.2,552"
     id="XMLID_1353_" /><path
     style="fill:none;stroke:none;stroke-width:2;stroke-linecap:round;stroke-linejoin:round;stroke-miterlimit:10"
     d="M 230.89999,552.79999 232.3,554.40002"
     id="XMLID_1352_" /><path
     style="fill:none;stroke:none;stroke-width:2;stroke-linecap:round;stroke-linejoin:round;stroke-miterlimit:10"
     d="M 232.3,554.40002 233.5,552.5"
     id="XMLID_1351_" /><path
     style="fill:none;stroke:none;stroke-width:2;stroke-linecap:round;stroke-linejoin:round;stroke-miterlimit:10"
     d="m 233.5,552.5 1,1.5"
     id="XMLID_1350_" /><path
     style="fill:none;stroke:none;stroke-width:2;stroke-linecap:round;stroke-linejoin:round;stroke-miterlimit:10"
     d="m 234.5,554 1.39999,-1.29999"
     id="XMLID_1349_" /><path
     inkscape:connector-curvature="0"
     id="XMLID_1348_"
     d="m 233.2,546.6 0,0 c -0.2,0.7 -0.5,1.4 -0.7,2 0.1,0 0.5,0.4 1.1,0.2 0.5,-0.1 0.8,-0.5 0.9,-0.6 -0.5,-0.4 -1,-1.1 -1.3,-1.6 z" /><path
     style="fill:none;stroke:none;stroke-width:2;stroke-linecap:round;stroke-linejoin:round;stroke-miterlimit:10"
     inkscape:connector-curvature="0"
     id="XMLID_1433_"
     stroke-miterlimit="10"
     d="m 237.1,563.9 c -0.5,-6.8 -1,-13.6 -1.6,-20.5" /><path
     style="fill:none;stroke:none;stroke-width:2;stroke-linecap:round;stroke-linejoin:round;stroke-miterlimit:10"
     d="m 235.5,543.29999 3.5,-9.89997"
     id="XMLID_1432_" /><path
     style="fill:none;stroke:none;stroke-width:2;stroke-linecap:round;stroke-linejoin:round;stroke-miterlimit:10"
     d="m 239,533.40002 4.60001,10.5"
     id="XMLID_1431_" /><path
     style="fill:none;stroke:none;stroke-width:2;stroke-linecap:round;stroke-linejoin:round;stroke-miterlimit:10"
     inkscape:connector-curvature="0"
     id="XMLID_1430_"
     stroke-miterlimit="10"
     d="m 243.6,543.9 c 0.3,6.6 0.7,13.3 1.1,19.9" /><path
     style="fill:none;stroke:none;stroke-width:2;stroke-linecap:round;stroke-linejoin:round;stroke-miterlimit:10"
     d="m 235.60001,543.5 2,3"
     id="XMLID_1429_" /><path
     style="fill:none;stroke:none;stroke-width:2;stroke-linecap:round;stroke-linejoin:round;stroke-miterlimit:10"
     d="M 237.60001,546.5 239.3,543.40002"
     id="XMLID_1428_" /><path
     style="fill:none;stroke:none;stroke-width:2;stroke-linecap:round;stroke-linejoin:round;stroke-miterlimit:10"
     d="M 239.3,543.40002 240.60001,546"
     id="XMLID_1427_" /><path
     style="fill:none;stroke:none;stroke-width:2;stroke-linecap:round;stroke-linejoin:round;stroke-miterlimit:10"
     d="M 240.60001,546 243.3,543.70001"
     id="XMLID_1426_" /><path
     inkscape:connector-curvature="0"
     id="XMLID_1425_"
     d="m 238.9,533.6 0,0 c -0.4,1.1 -0.7,2.2 -1.1,3.3 0.1,0.1 0.7,0.7 1.6,0.6 0.7,-0.1 1.1,-0.6 1.2,-0.8 -0.7,-1.1 -1.2,-2.1 -1.7,-3.1 z" /></g>


        <g
   id="pic-7-band">
      <path
   style="fill:none;stroke:none;stroke-width:2;stroke-linecap:round;stroke-linejoin:round;stroke-miterlimit:10"
   inkscape:connector-curvature="0"
   d="m 324.4,385.7 c 9.4,-1 17.3,-2.4 29.1,-2.7 1.4,-0.1 2.4,-0.1 3.1,-0.1 1.1,2.2 2.4,5.3 3.2,9.2 1.1,5.3 0.8,9.9 0.4,13 -6.9,0.2 -13.3,0.4 -19.1,0.7"
   stroke-miterlimit="10"
   id="Band_4_" /><path
   style="fill:none;stroke:none;stroke-width:2;stroke-linecap:round;stroke-linejoin:round;stroke-miterlimit:10"
   inkscape:connector-curvature="0"
   d="m 341.2,405.7 c -11.3,0.5 -20.6,1.2 -27.9,1.8 0,0 -24.7,2.1 -46.8,1.5 -1.7,-0.1 -3.3,-0.2 -3.3,-0.2 -1.6,-0.1 -3.3,-0.2 -3.7,-0.3 -0.6,-1.9 -1.2,-5.2 -0.6,-9.3 0.7,-4.6 2.7,-7.9 3.8,-9.5 0.1,-0.3 0.8,-2.1 2.5,-2.8 0.9,-0.4 1.6,-0.4 2,-0.3 16.1,1.8 29.1,1.5 38.1,0.9 5.5,-0.4 11.3,-1 18.9,-1.8"
   stroke-miterlimit="10"
   id="Band_3_" /><g
   id="XMLID_1723_"
   transform="matrix(1.246766,0,0,1.1817406,-74.092839,-73.34823)"><path
     style="fill:#000000"
     d="m 318.7,403 c -0.421,-0.6688 -0.10264,-1.49703 -0.18562,-2.22615 -0.3923,-0.25281 -1.06879,-0.0861 -1.45642,0.11875 -0.15273,0.309 0.69094,-0.32143 0.73011,0.28283 0.45989,0.6006 -0.43253,1.92097 -0.81563,0.86805 0.0202,-0.70151 -0.72508,-0.48506 -0.48928,0.12155 0.13915,0.80964 0.97666,0.78142 1.51602,0.63613 0.22617,0.0858 0.4494,0.22076 0.70082,0.19884 z"
     id="XMLID_1847_"
     inkscape:connector-curvature="0" /><path
     style="fill:#000000"
     d="m 314.1,401.7 c -0.37286,0.38147 0.15665,1.76763 -0.81239,1.2136 -0.2832,-0.27141 -0.47025,-1.63028 -0.93893,-0.87808 -0.15219,1.04626 1.5257,1.74786 1.95605,0.6591 0.15346,-0.31156 0.2783,-0.90582 -0.20473,-0.99462 z"
     id="XMLID_1846_"
     inkscape:connector-curvature="0" /><path
     style="fill:#000000"
     d="m 310.7,401.9 c -0.4577,-0.60882 -1.01078,0.24346 -0.52772,0.64089 -0.0162,0.71899 0.96703,0.86062 0.75091,0.004 -0.0591,-0.14619 0.20654,-1.06541 -0.0977,-0.94449 z"
     id="XMLID_1845_"
     inkscape:connector-curvature="0"
     sodipodi:nodetypes="ccccc" /><path
     style="fill:#000000"
     d="m 309.7,402 c 0.68976,0.39469 -0.58249,1.49044 -0.39997,0.46628 0.36595,-0.62351 -0.68549,-1.19865 -0.66781,-0.2738 -0.25676,1.07626 1.54217,1.38227 1.47002,0.21703 C 310.08234,402.1997 309.90458,402.03191 309.7,402 Z"
     id="XMLID_1844_"
     inkscape:connector-curvature="0" /><path
     style="fill:#000000"
     d="m 311.9,402.2 c 0.46046,-0.49608 0.0789,-0.69774 -0.0337,-0.26769 -0.41551,-0.72397 -1.12292,0.22545 -0.56532,0.64945 0.0477,0.56807 0.43904,0.81629 0.58117,0.12816 0.12062,-0.14346 0.0949,-0.25522 0.0179,-0.50992 z"
     id="XMLID_1843_"
     inkscape:connector-curvature="0"
     sodipodi:nodetypes="cccccc" /><path
     style="fill:#000000"
     d="m 316,401.7 c 0.91318,0.61951 -0.68466,2.00158 -0.79989,0.66799 -0.20751,-0.64844 -1.07184,-0.4108 -0.7141,0.272 0.15768,0.95166 1.72064,1.20324 2.0098,0.21208 0.19988,-0.43224 0.007,-1.04705 -0.49581,-1.15207 z"
     id="XMLID_1842_"
     inkscape:connector-curvature="0" /><path
     style="fill:#000000"
     d="m 305.8,401.7 c -0.22794,0.8505 -1.5762,-0.32816 -1.25641,0.83823 0.0318,0.95379 1.97308,1.20581 1.64026,0.10228 -0.27251,-0.18378 -0.93078,0.45048 -0.86957,-0.22706 0.0395,-0.41507 1.0974,-0.24735 0.48572,-0.71345 z"
     id="XMLID_1841_"
     inkscape:connector-curvature="0" /><path
     style="fill:#000000"
     d="m 308.1,401.8 c -0.27848,-0.36465 -1.83407,-0.31981 -1.02151,0.20565 0.66174,0.0151 1.12042,1.12511 0.18451,1.03243 -0.17973,-0.27681 -0.20255,-1.23997 -0.72769,-0.67023 -0.3562,0.92699 1.49339,1.12132 1.65919,0.23746 0.12495,-0.24486 0.17558,-0.63392 -0.0945,-0.80531 z"
     id="XMLID_1840_"
     inkscape:connector-curvature="0" /><path
     style="fill:#000000"
     d="m 307.1,401.5 c -0.45913,-0.71783 -0.70183,0.77147 0.0142,0.29598 0.7051,0.13004 0.57201,-0.27003 -0.0142,-0.29598 z"
     id="XMLID_1839_"
     inkscape:connector-curvature="0" /><path
     style="fill:#000000"
     d="m 309.2,401.7 c 0.23134,-1.07733 -1.31687,0.1386 -0.0731,2e-5 l 0.0439,-10e-6 0.0292,-1e-5 z"
     id="XMLID_1838_"
     inkscape:connector-curvature="0" /><path
     style="fill:#000000"
     d="m 312.22544,401.40028 c 0.27426,-0.58807 -0.41801,0.47618 -0.10874,0.15892 l 0.11354,0.23194 z"
     id="XMLID_1837_"
     inkscape:connector-curvature="0"
     sodipodi:nodetypes="cccc" /><path
     style="fill:#000000"
     d="m 310.9,401.2 c -0.26725,0.32771 -0.023,0.31735 0.076,0.35422 0.27957,0.58865 1.28326,-0.4739 -0.076,-0.35422 z"
     id="XMLID_1836_"
     inkscape:connector-curvature="0" /><path
     style="fill:#000000"
     d="m 310.5,401.7 c 0.11853,-0.73733 -1.32861,-0.24114 -0.48431,0.0944 0.17198,0.0295 0.31481,-0.1004 0.48431,-0.0944 z"
     id="XMLID_1835_"
     inkscape:connector-curvature="0" /><path
     style="fill:#000000"
     d="m 314.1,401.7 c 0.63441,-0.70148 -1.62735,-0.63794 -0.57694,-0.1771 0.15347,0.1008 0.39095,0.40012 0.57694,0.1771 z"
     id="XMLID_1834_"
     inkscape:connector-curvature="0" /><path
     style="fill:#000000"
     d="m 316.3,401.2 c -0.36667,0 -0.73333,0 -1.1,0 0.3219,0.15985 1.66637,1.04539 1.1,0 z"
     id="XMLID_1833_"
     inkscape:connector-curvature="0" /><path
     style="fill:#000000"
     d="m 317.2,401.2 c -0.59933,-0.31798 -0.35193,1.01148 -0.045,0.28973 l 0.006,-0.14789 L 317.2,401.2 Z"
     id="XMLID_1832_"
     inkscape:connector-curvature="0" /><path
     style="fill:#000000"
     d="m 306.4,401.5 c -0.0961,-0.84961 -1.29565,0.3034 -0.26133,0.20525 0.11126,-0.014 0.25189,-0.0724 0.26133,-0.20525 z"
     id="XMLID_1827_"
     inkscape:connector-curvature="0" /><path
     style="fill:#000000"
     d="m 307.8,401.6 c 0.91424,-0.0684 -0.61177,-0.85835 -0.18539,-0.0912 0.0503,0.0538 0.11768,0.0704 0.18539,0.0912 z"
     id="XMLID_1825_"
     inkscape:connector-curvature="0" /><path
     style="fill:#000000"
     d="m 315,401.2 c -0.6799,-0.14808 0.0285,1.0442 -0.0576,0.14452 0.005,-0.0532 0.036,-0.0971 0.0576,-0.14452 z"
     id="XMLID_1824_"
     inkscape:connector-curvature="0" /><path
     style="fill:#000000"
     d="m 305,401.2 c -0.57471,-0.14417 -0.3446,1.26925 -0.17575,0.4831 0.26987,-0.097 0.15225,-0.43783 0.17575,-0.4831 z"
     id="XMLID_1823_"
     inkscape:connector-curvature="0"
     sodipodi:nodetypes="ccc" /><path
     style="fill:#000000"
     d="m 312.9,401.2 c -0.58885,-0.33516 -0.36978,0.99782 -0.0809,0.2887 -0.002,-0.0958 -0.005,-0.22119 0.0809,-0.2887 z"
     id="XMLID_1822_"
     inkscape:connector-curvature="0" /><path
     style="fill:#000000"
     d="m 313.1,401 c 0.51275,-0.52258 -0.88809,0.45446 -0.16988,0.19674 0.0269,-0.0767 0.0712,-0.18847 0.16988,-0.19674 z"
     id="XMLID_1821_"
     inkscape:connector-curvature="0" /><path
     style="fill:#000000"
     d="m 316.2,401 c -0.24237,-0.72006 -1.35293,0.47724 -0.38935,0.1874 0.1284,0.0161 0.67366,0.11613 0.38935,-0.1874 z"
     id="XMLID_1820_"
     inkscape:connector-curvature="0" /><path
     style="fill:#000000"
     d="m 307.1,400.9 c 0.2967,-0.39078 1.13605,0.70059 0.96499,-0.10595 -0.24576,-0.39537 -1.56202,-0.14662 -1.11074,0.19112 0.0486,-0.0284 0.0972,-0.0567 0.14575,-0.0852 z"
     id="XMLID_1818_"
     inkscape:connector-curvature="0" /><path
     style="fill:#000000"
     d="m 313.8,401 c -0.35775,-0.34512 -0.93271,0.44751 -0.24563,0.20585 0.20893,0.0588 0.78662,-0.0995 0.24563,-0.20585 z"
     id="XMLID_1817_"
     inkscape:connector-curvature="0" /><path
     style="fill:#000000"
     d="m 308.6,401.2 c 0.53453,-0.0521 1.09051,-0.27482 1.54354,0.0317 0.41951,-0.30582 -0.0609,-0.62228 -0.35398,-0.43296 -0.44041,-0.20452 -1.42473,-0.39073 -1.18957,0.40126 l 1e-5,-3e-5 z"
     id="XMLID_1816_"
     inkscape:connector-curvature="0" /><path
     style="fill:#000000"
     d="m 312.2,401.2 c 0.99834,-0.24091 -0.59413,-0.84714 -0.38765,-0.13222 0.0736,0.1238 0.25041,0.23581 0.38765,0.13222 z"
     id="XMLID_1815_"
     inkscape:connector-curvature="0" /><path
     style="fill:#000000"
     d="m 315,401.2 c 0.52072,-0.25942 0.20542,-0.60703 -0.11818,-0.17748 -0.0969,0.13529 -0.16486,0.49612 0.11818,0.17748 z"
     id="XMLID_1814_"
     inkscape:connector-curvature="0" /><path
     style="fill:#000000"
     d="m 311.5,401 c -0.11645,-0.70451 -1.44134,0.17383 -0.42014,0.29951 0.19331,0.0615 0.57196,-0.0144 0.42014,-0.29951 z"
     id="XMLID_1812_"
     inkscape:connector-curvature="0" /><path
     style="fill:#000000"
     d="m 305.1,401.2 c 0.0887,-0.40594 1.56536,0.34908 0.86907,-0.32553 -0.2312,-0.0111 -0.90203,0.0974 -0.86907,0.32553 z"
     id="XMLID_1811_"
     inkscape:connector-curvature="0"
     sodipodi:nodetypes="ccc" /><path
     style="fill:#000000"
     d="m 317.5,400.7 c -0.24154,0.28568 0.47195,-0.0477 0,0 z"
     id="XMLID_1810_"
     inkscape:connector-curvature="0" /><path
     style="fill:#000000"
     d="m 307.6,400.7 c -0.22898,-0.21454 -0.35796,0.13379 0,0 z"
     id="XMLID_1809_"
     inkscape:connector-curvature="0" /><path
     style="fill:#000000"
     d="m 313.1,400.7 c 0.0144,0 0.0144,0 0,0 z"
     id="XMLID_1808_"
     inkscape:connector-curvature="0" /><path
     style="fill:#000000"
     d="m 318,400.7 c 0.74867,0.39515 0.43005,-0.93464 0.0361,-0.37086 -0.0353,0.12051 -0.0388,0.24653 -0.0361,0.37086 z"
     id="XMLID_1807_"
     inkscape:connector-curvature="0" /><path
     style="fill:#000000"
     d="m 315.5,400.7 c -0.0896,-0.28366 -0.32603,0.23673 0,0 z"
     id="XMLID_1806_"
     inkscape:connector-curvature="0" /><path
     style="fill:#000000"
     d="m 309.2,400.3 c -0.61147,-0.0867 -0.62141,0.96633 -0.0765,0.37948 0.052,-0.12079 0.0447,-0.25398 0.0765,-0.37948 z"
     id="XMLID_1805_"
     inkscape:connector-curvature="0" /><path
     style="fill:#000000"
     d="m 309.2,400.1 c -0.3794,-0.0165 0.26381,0.62544 0.0156,0.057 l -0.0116,-0.0424 L 309.2,400.1 Z"
     id="XMLID_1804_"
     inkscape:connector-curvature="0" /><path
     style="fill:#000000"
     d="m 318,400.3 c 0.82599,0.31818 0.2299,-1.08381 -0.1285,-0.40518 0.0474,0.11833 0.27231,0.2723 0.1285,0.40518 z"
     id="XMLID_1803_"
     inkscape:connector-curvature="0" /><path
     style="fill:#000000"
     d="m 316.2,399.3 c 0.59995,0.62994 1.42328,-1.17493 0.40724,-0.65483 -0.89875,-0.0678 0.12672,-0.79477 0.11084,-0.80468 -0.36339,0.0547 -0.93755,0.53309 -1.1283,-0.0377 -0.46078,0.50661 0.006,1.37135 0.61022,1.49717 z"
     id="XMLID_1802_"
     inkscape:connector-curvature="0" /><path
     style="fill:#000000"
     d="m 317.8,399.7 c 0.42358,0.36475 0.97487,-0.29862 0.22559,-0.21413 -0.14125,-0.0182 -0.64752,0.0361 -0.22559,0.21413 z"
     id="XMLID_1801_"
     inkscape:connector-curvature="0" /><path
     style="fill:#000000"
     d="m 306.5,397.9 c 0.22908,0.36537 0.4616,1.95887 0.96272,1.02187 0.0768,-0.33484 0.22869,-0.98723 -0.2067,-0.84264 -0.21771,-0.33218 -0.45708,-0.17937 -0.75602,-0.17923 z"
     id="XMLID_1800_"
     inkscape:connector-curvature="0" /><path
     style="fill:#000000"
     d="m 314.9,399.4 c 0.45261,-0.12128 -0.29728,-0.88081 0.31838,-1.03332 0.15285,-0.61971 -0.98689,-0.54699 -0.62583,0.0727 -0.0917,0.34902 -0.46452,1.26811 0.30745,0.96061 z"
     id="XMLID_1799_"
     inkscape:connector-curvature="0" /><path
     style="fill:#000000"
     d="m 308.9,399.2 c 0.0133,-0.36763 -0.14633,-1.64976 -0.59365,-0.98699 -0.2267,0.59405 -0.20436,1.5438 0.68722,1.25572 0.28447,0.007 9.5e-4,-0.24128 -0.0936,-0.26873 z"
     id="XMLID_1798_"
     inkscape:connector-curvature="0" /><path
     style="fill:#000000"
     d="m 304.1,402 c -0.32567,-0.58631 0.0554,-2.04839 -1.00708,-1.84278 -0.17653,0.17362 -0.17935,1.06488 0.0597,0.49753 0.31603,0.77256 0.48325,1.60175 0.65278,2.40778 0.50438,0.0496 0.98936,-1.41914 0.48205,-1.35044 -0.0654,0.0941 -0.1166,0.1984 -0.18745,0.28791 z"
     id="XMLID_1797_"
     inkscape:connector-curvature="0" /><path
     style="fill:#000000"
     d="m 302.8,401.7 c -0.53725,0.58943 -0.20061,-1.58447 -0.99889,-0.88189 0.003,0.7881 0.25716,1.5854 0.44488,2.35406 0.46854,0.60972 0.58661,-0.79604 0.68787,-1.11421 0.12199,-0.3738 0.0689,-1.14338 -0.13386,-0.35796 z"
     id="XMLID_1796_"
     inkscape:connector-curvature="0" /><path
     style="fill:#000000"
     d="m 304.3,401.2 c -0.2249,0.91492 0.42469,-0.42395 0.0493,-0.29347 -0.036,0.0943 -0.0294,0.19607 -0.0493,0.29347 z"
     id="XMLID_1795_"
     inkscape:connector-curvature="0" /><path
     style="fill:#000000"
     d="m 301.5,400.7 c -0.19366,0.35418 -1.32419,-0.0869 -0.5731,0.37297 0.24459,0.0903 0.63814,-0.0588 0.5731,-0.37297 z"
     id="XMLID_1794_"
     inkscape:connector-curvature="0" /><path
     style="fill:#000000"
     d="m 301.4,400.7 c 0.025,0 0.025,0 0,0 z"
     id="XMLID_1793_"
     inkscape:connector-curvature="0" /><path
     style="fill:#000000"
     d="m 300.6,400.6 c 0.21504,-0.52477 -0.41299,-0.2939 0,0 z"
     id="XMLID_1792_"
     inkscape:connector-curvature="0" /><path
     style="fill:#000000"
     d="m 302.2,400.4 c -0.76003,-0.64166 -0.67244,0.98638 0.004,0.28458 0.029,-0.0934 0.008,-0.19077 -0.004,-0.28458 z"
     id="XMLID_1791_"
     inkscape:connector-curvature="0" /><path
     style="fill:#000000"
     d="m 304.5,400.5 c 0.202,0.29042 -0.002,-0.85084 -0.13676,-0.23517 0.0615,0.0642 0.1579,0.12944 0.13676,0.23517 z"
     id="XMLID_1790_"
     inkscape:connector-curvature="0" /><path
     style="fill:#000000"
     d="m 302.2,400.3 c -0.26721,-0.68116 -1.57518,-0.72098 -1.91634,-0.1751 0.31959,-0.26289 0.80322,-0.50462 0.99743,0.0125 0.28741,0.14197 0.62228,0.0561 0.91891,0.16262 z"
     id="XMLID_1789_"
     inkscape:connector-curvature="0" /><path
     style="fill:#000000"
     d="m 303.5,400 c 0.10923,-0.58707 -1.41756,-0.0946 -0.53441,0.28037 0.20051,0.12356 0.64609,0.0357 0.53441,-0.28037 z"
     id="XMLID_1788_"
     inkscape:connector-curvature="0" /><path
     style="fill:#000000"
     d="m 304.5,400.3 c 0.41753,0.25909 1.00029,-0.65317 0.2838,-0.4 -0.34794,-0.0732 -0.64174,0.0526 -0.2838,0.4 z"
     id="XMLID_1787_"
     inkscape:connector-curvature="0" /><path
     style="fill:#000000"
     d="m 305.2,399.8 c -0.33882,0.0959 -1.24733,0.0632 -0.40872,0.0352 0.13618,-0.0125 0.27287,-0.0191 0.40872,-0.0352 z"
     id="XMLID_1786_"
     inkscape:connector-curvature="0" /><path
     style="fill:#000000"
     d="m 301.8,399.8 c -0.18786,-0.54283 -1.53129,0.14927 -0.49802,0 0.16601,0 0.33201,0 0.49802,0 z"
     id="XMLID_1785_"
     inkscape:connector-curvature="0" /><path
     style="fill:#000000"
     d="m 303.8,399.8 c -0.36667,0 -0.73333,0 -1.1,0 0.34186,0.22176 0.7357,-0.0393 1.1,0 z"
     id="XMLID_1784_"
     inkscape:connector-curvature="0" /><path
     style="fill:#000000"
     d="m 310.6,397.9 c -0.50189,0.18541 -1.20842,0.19856 -1.56284,0.31737 -0.26901,0.86909 1.08423,1.81415 1.688,0.99114 0.3532,-0.31605 -0.10946,-0.93773 -0.41795,-0.46909 -0.93847,-0.1617 -0.14884,-0.69298 0.29279,-0.83942 z"
     id="XMLID_1783_"
     inkscape:connector-curvature="0" /><path
     style="fill:#000000"
     d="m 311,399.2 c -0.0951,0.52379 1.368,0.24604 0.77516,-0.35874 0.1333,-0.52443 -0.6605,-1.16196 -0.64072,-0.31562 0.01,0.22887 0.0231,0.48669 -0.13444,0.67436 z"
     id="XMLID_1782_"
     inkscape:connector-curvature="0" /><path
     style="fill:#000000"
     d="m 313.4,397.9 c 0.42593,0.43368 -0.58245,1.71113 -0.41385,0.67278 0.44105,-0.59688 -0.5229,-1.39186 -0.69566,-0.44012 -0.31639,0.65931 0.24338,1.32579 0.92823,1.03471 0.45835,0.1335 1.18749,-0.0185 0.66283,-0.54942 -0.0126,-0.2875 0.0256,-1.2802 -0.48155,-0.71795 z"
     id="XMLID_1781_"
     inkscape:connector-curvature="0" /><path
     style="fill:#000000"
     d="m 316.6,397.5 c -0.44119,0.77824 1.28208,0.34586 0.32591,0.046 -0.10928,-0.009 -0.22041,-0.0126 -0.32591,-0.046 z"
     id="XMLID_1780_"
     inkscape:connector-curvature="0" /><path
     style="fill:#000000"
     d="m 311.2,397.9 c 0.77696,0.47208 0.69413,-1.13802 0.0511,-0.38095 -0.0398,0.12267 -0.0529,0.2525 -0.0511,0.38095 z"
     id="XMLID_1779_"
     inkscape:connector-curvature="0" /><path
     style="fill:#000000"
     d="m 315.9,397.5 c -0.63889,-0.0252 -0.16552,0.86704 -0.0217,0.0942 0.007,-0.0314 0.0145,-0.0628 0.0217,-0.0942 z"
     id="XMLID_1778_"
     inkscape:connector-curvature="0" /><path
     style="fill:#000000"
     d="m 307.6,397.6 c -0.23698,0.0376 -0.0756,0.60893 -0.007,0.0298 l 0.007,-0.0298 4e-4,0 z"
     id="XMLID_1777_"
     inkscape:connector-curvature="0" /><path
     style="fill:#000000"
     d="m 314.6,397.5 c -0.32214,0.82949 1.38055,0.32692 0.39354,-0.007 -0.13139,-0.004 -0.26215,0.0171 -0.39354,0.007 z"
     id="XMLID_1776_"
     inkscape:connector-curvature="0" /><path
     style="fill:#000000"
     d="m 310.6,397.9 c 0.71598,-0.69478 -1.11246,-0.36303 -0.0417,-0.006 L 310.6,397.9 Z"
     id="XMLID_1775_"
     inkscape:connector-curvature="0" /><path
     style="fill:#000000"
     d="m 308.8,397.9 c 0.43207,-0.78148 -1.21206,-0.3799 -0.32968,0.0296 0.11163,0.009 0.21799,-0.0526 0.32968,-0.0296 z"
     id="XMLID_1774_"
     inkscape:connector-curvature="0" /><path
     style="fill:#000000"
     d="m 313.1,397.9 c 0.3676,-0.79845 -1.38977,-0.44367 -0.51028,0.0211 0.17124,0.019 0.33906,-0.0432 0.51028,-0.0211 z"
     id="XMLID_1773_"
     inkscape:connector-curvature="0" /><path
     style="fill:#000000"
     d="m 313.4,397.9 c 0.93975,0.41926 0.53385,-1.24806 0.001,-0.26537 l 0.004,0.13758 L 313.4,397.9 Z"
     id="XMLID_1772_"
     inkscape:connector-curvature="0" /><path
     style="fill:#000000"
     d="m 306.5,397.9 c 0.86251,0.38119 0.33047,-1.07014 -0.18955,-0.40221 -0.0214,0.15699 0.10719,0.28419 0.18955,0.40221 z"
     id="XMLID_1771_"
     inkscape:connector-curvature="0" /><path
     style="fill:#000000"
     d="m 309.2,397.5 c -0.64829,0.49058 0.72537,0.49842 0.16918,-0.0104 L 309.2,397.5 Z"
     id="XMLID_1770_"
     inkscape:connector-curvature="0" /><path
     style="fill:#000000"
     d="m 309.5,397.4 c 0.21385,-0.4049 1.5993,0.30604 0.83998,-0.36453 -0.22858,-0.31281 -1.57239,0.50546 -0.83998,0.36453 z"
     id="XMLID_1769_"
     inkscape:connector-curvature="0" /><path
     style="fill:#000000"
     d="m 315.9,397.5 c 0.16948,-0.40802 1.55714,0.30413 0.85746,-0.28614 -0.17581,-0.0603 -1.17081,-0.06 -0.85746,0.28614 z"
     id="XMLID_1768_"
     inkscape:connector-curvature="0" /><path
     style="fill:#000000"
     d="m 307.7,397.5 c 0.2134,-0.41071 1.24425,0.32056 1.03351,-0.30198 -0.28413,0.0444 -1.93732,-0.3938 -1.03351,0.30198 z"
     id="XMLID_1767_"
     inkscape:connector-curvature="0" /><path
     style="fill:#000000"
     d="m 313.3,397.3 c 0.43888,0.37773 1.39269,0.12297 1.69741,0.0447 -0.46602,-0.43039 -1.29476,-0.13259 -1.88091,-0.30122 -0.35922,0.0773 0.0589,0.23235 0.1835,0.25655 z"
     id="XMLID_1766_"
     inkscape:connector-curvature="0" /><path
     style="fill:#000000"
     d="m 311.9,397.3 c -0.22513,-0.66882 -1.48179,0.20883 -0.44535,0.17322 0.33972,-0.0831 1.44676,0.22599 1.29711,-0.19506 -0.25466,-0.14037 -0.62987,-0.22494 -0.85176,0.0218 z"
     id="XMLID_1765_"
     inkscape:connector-curvature="0" /><path
     style="fill:#000000"
     d="m 306.9,397.5 c 0.034,-0.75418 -1.18901,-0.32189 -1.63469,-0.34721 0.21783,0.80863 1.05455,0.17575 1.63469,0.34724 l 0,-3e-5 z"
     id="XMLID_1764_"
     inkscape:connector-curvature="0" /><path
     style="fill:#000000"
     d="m 308.8,396.5 c -0.50306,-0.68763 -0.82451,0.90203 -0.1116,0.24611 0.084,-0.0277 0.26337,-0.17932 0.1116,-0.24611 z"
     id="XMLID_1763_"
     inkscape:connector-curvature="0" /><path
     style="fill:#000000"
     d="m 306.1,399.2 c 0.0287,-0.4024 -0.0954,-1.59707 -0.69314,-1.00247 -0.0923,0.53824 -0.42849,1.45938 0.50663,1.20514 0.25185,0.0461 0.50967,-0.0196 0.18651,-0.20267 z"
     id="XMLID_1762_"
     inkscape:connector-curvature="0" /><path
     style="fill:#000000"
     d="m 306,397.9 c 0.33494,-1.02173 -1.34256,0.0422 -0.16045,0 0.0535,0 0.10697,0 0.16045,0 z"
     id="XMLID_1761_"
     inkscape:connector-curvature="0" /><path
     style="fill:#000000"
     d="m 305.4,396.8 c 1.03095,0.46931 0.0793,-1.29793 -0.0575,-0.0536 0.007,0.0272 0.0403,0.0342 0.0575,0.0536 z"
     id="XMLID_1760_"
     inkscape:connector-curvature="0" /><path
     style="fill:#000000"
     d="m 304.8,398.6 c -0.17446,-0.3562 -0.28713,-0.99078 -0.84397,-0.61683 -0.30765,0.51578 0.30934,1.79591 0.70318,0.79876 0.0266,-0.0346 0.29817,-0.21824 0.14079,-0.18193 z"
     id="XMLID_1759_"
     inkscape:connector-curvature="0" /><path
     style="fill:#000000"
     d="m 304.8,397.5 c -0.45683,0.86329 0.39002,-0.0329 0,0 z"
     id="XMLID_1758_"
     inkscape:connector-curvature="0" /><path
     style="fill:#000000"
     d="m 304.2,397.5 c -0.80375,-0.48364 -0.67211,1.05786 0.0316,0.38816 0.0764,-0.11789 0.062,-0.28386 -0.0316,-0.38816 z"
     id="XMLID_1757_"
     inkscape:connector-curvature="0" /><path
     style="fill:#000000"
     d="m 303.6,397.5 c 1.24666,0.22588 -0.41109,-1.30648 -0.099,-0.0226 l 0.042,0.0237 0.0569,-0.001 z"
     id="XMLID_1756_"
     inkscape:connector-curvature="0" /><path
     style="fill:#000000"
     d="m 302.5,397 c 0.0812,0.43693 1.01534,-0.0399 0.30732,0.17888 -0.11401,-0.0371 -0.2123,-0.10805 -0.30732,-0.17888 z"
     id="XMLID_1755_"
     inkscape:connector-curvature="0" /><path
     style="fill:#000000"
     d="m 304.8,397.5 c 0.58661,-0.322 -0.0104,-0.81193 0,0 z"
     id="XMLID_1754_"
     inkscape:connector-curvature="0" /><path
     style="fill:#000000"
     d="m 304,396.7 c 0.22542,-0.96149 -1.44537,-1.13581 -1.82377,-0.43748 -0.11075,0.31437 0.13552,0.94537 0.025,0.25055 0.27027,-0.7348 1.31774,-0.17877 1.17025,0.43813 0.18241,0.12633 0.89988,0.14694 0.62849,-0.2512 z"
     id="XMLID_1753_"
     inkscape:connector-curvature="0" /><path
     style="fill:#000000"
     d="m 303.3,397 c 0.10769,-0.16531 -0.23442,-0.0539 0,0 z"
     id="XMLID_1752_"
     inkscape:connector-curvature="0" /><path
     style="fill:#000000"
     d="m 305.7,396.1 c -0.37383,-0.17615 -1.42521,-0.10201 -0.77296,0.45681 0.0426,1.06163 0.37901,-0.53227 0.77296,-0.45681 z"
     id="XMLID_1751_"
     inkscape:connector-curvature="0" /><path
     style="fill:#000000"
     d="m 309.7,394.8 c 0.28042,-0.0773 -0.26257,-0.0886 0,0 z"
     id="XMLID_1750_"
     inkscape:connector-curvature="0" /><path
     style="fill:#000000"
     d="m 312.7,394.7 c -0.82417,0.72822 -2.00353,0.57179 -3.01587,0.69474 -0.65291,-0.0134 -1.31976,-0.28739 -1.96367,-0.15307 1.02142,0.0943 2.06737,0.56525 3.07729,0.14374 0.62089,-0.12341 2.02237,0.0156 2.0459,-0.66658 l -0.14365,-0.0188 0,10e-6 z m -3,0.9 c -0.42642,-0.0503 -0.52025,-0.21281 -0.0146,-0.12335 0.52342,-0.0478 0.5438,0.12031 0.0146,0.12335 z"
     id="XMLID_1747_"
     inkscape:connector-curvature="0" /><path
     style="fill:#000000"
     d="m 307.7,395.1 c -0.28691,-0.13595 -1.40138,-0.59063 -0.64091,-0.0799 0.20139,0.0835 0.42527,0.10873 0.64091,0.0799 z"
     id="XMLID_1746_"
     inkscape:connector-curvature="0" /><path
     style="fill:#000000"
     d="m 310.7,394.7 c 0.61267,0.14096 0.0755,-0.88936 -0.15213,-0.17322 -0.23664,0.319 -0.8901,0.008 -0.53889,-0.0371 -0.14996,0.2966 -0.72907,-0.0198 -0.62589,0.22628 -0.91744,0.008 0.59702,0.36133 0.89077,0.13712 0.1468,-0.0362 0.28986,-0.0876 0.42614,-0.1531 z"
     id="XMLID_1745_"
     inkscape:connector-curvature="0" /><path
     style="fill:#000000"
     d="m 309.2,394.5 c -0.26676,-0.21848 0.0325,0.2096 0,0 z"
     id="XMLID_1744_"
     inkscape:connector-curvature="0" /><path
     style="fill:#000000"
     d="m 307.3,394.7 c 0.79996,0.61382 1.90286,0.7307 2.87624,0.65779 0.50118,-0.0197 1.63959,-0.31982 1.66637,-0.4719 -0.30678,0.23978 -0.86983,0.1338 -0.893,-0.005 -0.59902,0.77329 -1.77471,0.47582 -2.45783,-0.0188 -0.47652,0.77569 -1.21943,-0.59414 -0.71478,-0.55921 -0.20441,0.025 -0.54328,0.1205 -0.477,0.39662 z"
     id="XMLID_1743_"
     inkscape:connector-curvature="0" /><path
     style="fill:#000000"
     d="m 310.7,394.5 c 0.22913,-0.062 -0.0991,-0.15061 0,0 z"
     id="XMLID_1742_"
     inkscape:connector-curvature="0" /><path
     style="fill:#000000"
     d="m 310,394.4 c 0,0.0677 0,0.0677 0,0 z"
     id="XMLID_1741_"
     inkscape:connector-curvature="0" /><path
     style="fill:#000000"
     d="m 309.7,394.3 c -0.0375,0 -0.0375,0 0,0 z"
     id="XMLID_1740_"
     inkscape:connector-curvature="0" /><path
     style="fill:#000000"
     d="m 312.2,394.3 c 0.25217,0.14962 0.75763,0.52536 0.32825,0.0366 l -0.1611,-0.043 L 312.2,394.3 Z"
     id="XMLID_1739_"
     inkscape:connector-curvature="0" /><path
     style="fill:#000000"
     d="m 309.4,394.4 c 0,0.0414 0,0.0414 0,0 z"
     id="XMLID_1738_"
     inkscape:connector-curvature="0" /><path
     style="fill:#000000"
     d="m 306.7,394.7 c 0.18839,-0.52366 1.48371,-0.69085 1.40992,-0.45672 -0.51659,0.27479 0.44827,-0.14952 0.30715,0.38885 0.0359,0.51494 1.0142,0.29993 0.26084,-0.0207 -0.12906,-0.2435 0.45286,-0.07 -0.0528,-0.35202 -0.41798,-0.55297 1.19156,-1.11489 0.76829,-0.18187 0.19633,0.49793 -0.0565,-1.33065 0.47824,-0.6514 -0.0633,0.32731 0.15322,1.26641 0.11617,0.42952 -0.0171,-0.96933 1.48733,0.55018 0.47797,0.63339 0.61402,-0.20889 1.43698,0.18202 1.77137,0.30869 -0.15898,-0.29119 -1.38442,-0.65295 -0.41317,-0.44233 0.28951,0.13706 0.91056,-0.0669 0.28958,-0.17796 -0.7492,-0.007 -2.15207,-0.68217 -1.90765,-1.36161 0.60438,-0.0131 0.56596,-1.04017 0.0154,-0.83996 0.44611,-0.70861 -1.11262,-0.57879 -0.50582,0.0178 -0.34918,0.0805 -0.60913,0.0223 -0.45374,0.47906 -0.0719,0.49576 0.77435,0.20509 0.33968,0.75436 -0.4062,0.83821 -1.40619,0.80909 -2.13963,1.08673 -0.24372,0.0836 -0.50983,0.64063 -0.76177,0.38613 z m 2.4,-2 c -0.40951,-0.66478 0.95557,-0.14444 0.0939,-0.0556 -0.0313,0.0185 -0.0626,0.0371 -0.0939,0.0556 z"
     id="XMLID_1735_"
     inkscape:connector-curvature="0" /><path
     style="fill:#000000"
     d="m 309.6,394.7 c 0.81623,-0.1288 -0.52924,-0.60583 0,0 z"
     id="XMLID_1734_"
     inkscape:connector-curvature="0" /><path
     style="fill:#000000"
     d="m 310.3,394.7 c 0.37792,-0.20789 -0.23694,0.008 0,0 z"
     id="XMLID_1733_"
     inkscape:connector-curvature="0" /><path
     style="fill:#000000"
     d="m 309.8,394.3 0,0 0,0 0,0 0,0 0,0 z"
     id="XMLID_1732_"
     inkscape:connector-curvature="0" /><path
     style="fill:#000000"
     d="m 308.8,394.3 c -0.22913,0.062 0.0991,0.15061 0,0 z"
     id="XMLID_1731_"
     inkscape:connector-curvature="0" /><path
     style="fill:#000000"
     d="m 309.5,394.3 c -0.55428,-0.11451 -0.54375,0.3124 -0.0829,0.1199 L 309.5,394.3 Z"
     id="XMLID_1730_"
     inkscape:connector-curvature="0" /><path
     style="fill:#000000"
     d="m 310,394.4 c 0.37332,0.13727 0.65095,-0.38436 0.14713,-0.10371 C 310.03081,394.21515 309.7964,394.18622 310,394.4 Z"
     id="XMLID_1729_"
     inkscape:connector-curvature="0" /><path
     style="fill:#000000"
     d="m 309.7,393.3 c -0.16024,0.14271 0.21319,0.0965 0,0 z"
     id="XMLID_1728_"
     inkscape:connector-curvature="0" /><path
     style="fill:#000000"
     d="m 309.7,393.9 c -0.15077,0.14866 0.13018,0.0269 0,0 z"
     id="XMLID_1727_"
     inkscape:connector-curvature="0" /><path
     style="fill:#000000"
     d="m 309.7,393.6 c -0.16024,0.14271 0.21319,0.0965 0,0 z"
     id="XMLID_1726_"
     inkscape:connector-curvature="0" /><path
     style="fill:#000000"
     d="m 309.7,394.2 c 0.0481,-0.0621 -0.43737,0.0295 0,0 z"
     id="XMLID_1725_"
     inkscape:connector-curvature="0" /><path
     style="fill:#000000"
     d="m 309.5,394.3 0,0 0,0 z"
     id="XMLID_1724_"
     inkscape:connector-curvature="0" /></g></g>
          <g
   id="pic-8-second-cap"><path
   inkscape:connector-curvature="0"
   id="path2694"
   d="m 319.2,356.3 -4.4,-7.4 -5.1,-8.6 -5.1,-8.6 -2.1,-3.5 c 0,0 -8.2,8.9 -10.7,11.8 -2,2.4 -4.2,4.7 -6.2,7.1 -1.8,2.1 -6.7,6.2 -6.7,6.2 0,0 -1.9,1 -2.5,1.3 -3.1,1.4 -5.6,1.8 -7.7,2.3 -3,0.6 -5.8,1.6 -8.7,2.4 -3.7,1 -16.1,4.3 -16.1,4.3 l 2,3.6 4.9,8.7 5.1,9.1 4.7,8.1 3.3,5.8 58.9,-36.6 -3.6,-6 z" /><path
   style="fill:none;stroke:none;stroke-width:2;stroke-linecap:round;stroke-linejoin:round;stroke-miterlimit:10"
   inkscape:connector-curvature="0"
   d="m 263.8,398.9 58.9,-36.6 -20.3,-34 c 0,0 -8.2,8.9 -10.7,11.7 -2,2.4 -4.2,4.7 -6.2,7.1 -1.8,2.1 -6.7,6.2 -6.7,6.2 0,0 -1.9,1 -2.5,1.3 -3.1,1.4 -5.6,1.8 -7.7,2.3 -3,0.6 -5.8,1.6 -8.7,2.4 -3.7,1 -16.1,4.3 -16.1,4.3 l 20,35.3 z"
   stroke-miterlimit="10"
   id="path274" /><path
   style="fill:none;stroke:none;stroke-width:2;stroke-linecap:round;stroke-linejoin:round;stroke-miterlimit:10"
   inkscape:connector-curvature="0"
   d="m 262.7,325.2 c -13.5,15 -26.9,30 -40.4,44.9 19,-5.5 38.1,-11 57.1,-16.5 13.3,-14.6 26.7,-29.2 40.1,-43.8 -19,5.2 -37.9,10.3 -56.8,15.4"
   stroke-miterlimit="10"
   id="path276"
   class="white-fill" /><path
   style="fill:none;stroke:none;stroke-width:2;stroke-linecap:round;stroke-linejoin:round;stroke-miterlimit:10"
   d="m 272.79999,338.20001 -36.69998,26.5"
   id="XMLID_2218_" /><path
   style="fill:none;stroke:none;stroke-width:2;stroke-linecap:round;stroke-linejoin:round;stroke-miterlimit:10"
   d="m 236.10001,364.70001 4.09999,9.4"
   id="XMLID_2165_" /><path
   style="fill:none;stroke:none;stroke-width:2;stroke-linecap:round;stroke-linejoin:round;stroke-miterlimit:10"
   d="m 240.2,374.10001 6.8,16.19998"
   id="XMLID_2330_" /><path
   inkscape:connector-curvature="0"
   style="fill:none;stroke:none;stroke-width:2;stroke-linecap:round;stroke-linejoin:round;stroke-miterlimit:10"
   id="path281"
   d="m 256.5,404.3 c -0.3,-0.2 -0.6,-0.6 -0.9,-1.3 -0.2,-0.3 -0.3,-0.6 -0.5,-0.9 -0.6,-1.1 -1.1,-2.2 -1.7,-3.4 -0.4,-0.9 -0.9,-1.9 -1.2,-2.9 -0.2,-0.4 -0.3,-0.9 -0.5,-1.3 -0.4,-1.1 -0.8,-2.1 -1.2,-3.2 0,-0.1 -0.1,-0.2 -0.2,-0.6 -0.2,-0.4 -0.6,-1 -1.2,-1.3 -0.7,-0.4 -1.3,-0.2 -1.7,-0.2 -0.7,0.1 -1.2,0.5 -1.6,0.7 -0.1,0.1 -0.3,0.2 -0.4,0.4 0,0.1 -0.2,0.3 -0.4,0.8 -0.2,0.8 -0.2,1.5 -0.1,1.9 0,0.2 0.1,0.4 0.1,0.4 0.4,1 0.8,2 1.2,3.2 0.3,0.9 0.6,1.8 0.9,2.9 0.2,0.7 0.3,1.3 0.5,1.9 0.3,1.2 0.5,2.4 0.7,3.5 0,0.2 0.1,0.4 0.1,0.6 0.1,0.4 0.2,0.9 0.2,1.5 0,0.8 -0.1,1.2 0.1,1.4 0.2,0.2 0.6,-0.1 1.3,-0.4 0.5,-0.2 1.2,-0.6 2.2,-0.8 0.7,-0.3 1.4,-0.6 2.2,-0.9 0.6,-0.2 1.2,-0.4 1.5,-0.6 0.6,-0.2 1.1,-0.6 1.1,-0.9 -0.1,-0.2 -0.3,-0.3 -0.5,-0.5 z" />
        </g>




        <g
   id="pic-9-tie">
        <path
   id="XMLID_2644_"
   stroke-miterlimit="10"
   d="m 168.2,563.4 c 5.4,-8.6 9.1,-15.4 11.5,-20.3 3,-6.1 7.5,-11.3 10.3,-17.4 0.3,-0.6 1,-2.2 2.5,-3.4 2,-1.6 4.3,-1.4 8,-1.9 2.7,-0.3 5.3,-0.9 7.9,-1.1 7.6,-0.7 9.5,-1.5 25.1,-3.4 9.6,-1.2 19.2,-3.1 28.9,-4.2 0.9,-0.1 3,-0.5 5.5,-1.3 3.7,-1.2 6.4,-3 8.1,-4.3"
   inkscape:connector-curvature="0"
   style="fill:none;stroke:none;stroke-width:2;stroke-linecap:round;stroke-linejoin:round;stroke-miterlimit:10" /><path
   id="XMLID_2643_"
   stroke-miterlimit="10"
   d="m 446.5,564.1 c -5.5,-8.6 -9.1,-15.4 -11.6,-20.2 -3,-6.1 -7.5,-11.3 -10.4,-17.4 -0.3,-0.6 -1,-2.2 -2.5,-3.4 -2,-1.6 -4.2,-1.4 -8,-1.9 -2.7,-0.3 -5.3,-0.9 -7.9,-1.1 -7.6,-0.7 -9.5,-1.5 -25.1,-3.4 -9.6,-1.2 -19.2,-3.1 -28.9,-4.2 -0.2,0 -0.6,-0.1 -1.1,-0.2 -1.5,-0.2 -2.8,-0.6 -4.3,-1.2 -2.6,-0.9 -4.8,-2 -6.2,-2.7"
   inkscape:connector-curvature="0"
   style="fill:none;stroke:none;stroke-width:2;stroke-linecap:round;stroke-linejoin:round;stroke-miterlimit:10" /><path
   sodipodi:nodetypes="cc"
   id="XMLID_2642_"
   stroke-miterlimit="10"
   d="m 288.41901,571.036 c -5.79273,0.55311 -8.64545,0.71433 -11.29969,0.77886"
   inkscape:connector-curvature="0"
   style="fill:none;stroke:none;stroke-width:2;stroke-linecap:round;stroke-linejoin:round;stroke-miterlimit:10" /><path
   id="XMLID_2641_"
   stroke-miterlimit="10"
   d="M 288.6,310.3"
   inkscape:connector-curvature="0"
   style="fill:none;stroke:none;stroke-width:2;stroke-linecap:round;stroke-linejoin:round;stroke-miterlimit:10" /><path
   id="XMLID_2640_"
   stroke-miterlimit="10"
   d="M 304.6,331.7"
   inkscape:connector-curvature="0"
   style="fill:none;stroke:none;stroke-width:2;stroke-linecap:round;stroke-linejoin:round;stroke-miterlimit:10" /><path
   id="XMLID_2639_"
   stroke-miterlimit="10"
   d="m 276,508.4 c 4.3,2.8 15.8,9.6 32,9.6 16.4,0 28.1,-7 32.4,-9.9"
   inkscape:connector-curvature="0"
   style="fill:none;stroke:none;stroke-width:2;stroke-linecap:round;stroke-linejoin:round;stroke-miterlimit:10" /><path
   id="tie-part-1"
   class="tie-part"
   stroke-miterlimit="10"
   d="m 316,538.5 c -0.1,0.4 -0.3,0.9 -0.9,1.4 -0.3,0.2 -0.6,0.3 -0.9,0.4 -1.6,0.4 -4,0.2 -6,0.1 -1.5,-0.1 -2.1,0 -3.7,-0.2 -0.7,-0.1 -1.2,-0.2 -1.6,-0.2 -0.1,-0.2 -0.3,-0.6 -0.6,-1.1 -1.4,-2.8 -2.5,-4.7 -2.8,-5.3 -0.8,-1.5 -1.7,-3.7 -2.5,-7 1.2,-1.1 2.5,-2.4 4.1,-3.9 4.1,-3.9 5.5,-5 7.1,-4.8 0.6,0.1 1.3,0.6 2.7,1.4 1.7,1.1 2.9,2.2 3.6,2.9 1.2,1.2 3.1,2.9 5.6,5.2 -1.4,3.7 -2.7,7.4 -4.1,11.1 z"
   inkscape:connector-curvature="0"
   style="fill:none;stroke:none;stroke-width:2;stroke-linecap:round;stroke-linejoin:round;stroke-miterlimit:10" /><path
   d="m 317.6,525.1 c -1.2,-1.2 -2.2,-2.1 -3,-2.9 -0.3,-0.3 -0.7,-0.7 -1.2,-1.1 -0.6,-0.6 -1.4,-1.2 -2.4,-1.8 -1.4,-0.9 -2,-1.3 -2.7,-1.4 -1.4,-0.2 -2.5,0.6 -5.3,3.2 -0.6,0.5 -1.1,1 -1.7,1.6 -1.2,1.1 -2.2,2.1 -3.2,3 -0.3,0.3 -0.6,0.6 -0.9,0.9 0.5,2.1 1.1,3.7 1.6,5 0.3,0.8 0.6,1.4 0.9,1.9 0.2,0.4 0.7,1.3 1.4,2.7 0.4,0.8 0.9,1.7 1.4,2.7 0.2,0.5 0.4,0.9 0.6,1.1 0.4,0.1 0.9,0.2 1.6,0.2 1.6,0.2 2.2,0.1 3.7,0.2 1.9,0.1 4.4,0.3 6,-0.1 0.2,-0.1 0.6,-0.2 0.9,-0.4 0.6,-0.4 0.8,-1 0.9,-1.4 0.3,-0.8 0.6,-1.6 0.9,-2.4 0.6,-1.8 1.3,-3.6 2,-5.3 0.4,-1.2 0.8,-2.3 1.2,-3.4 -1.1,-0.9 -1.9,-1.7 -2.7,-2.3 z"
   id="path3169"
   inkscape:connector-curvature="0" /><path
   id="XMLID_2637_"
   stroke-miterlimit="10"
   d="m 275.6,506.5 c -1.5,4.7 -6.2,21.1 -1.7,37.8 2.4,8.7 7,16.5 7.4,17.2 2.4,3.9 4.7,6.9 6.7,9.2"
   inkscape:connector-curvature="0"
   style="fill:none;stroke:none;stroke-width:2;stroke-linecap:round;stroke-linejoin:round;stroke-miterlimit:10" /><path
   id="XMLID_2636_"
   stroke-miterlimit="10"
   d="m 340.9,508.6 c 1.4,5.4 4.8,20.4 0.5,36.2 -2.5,8.9 -6.8,16.1 -7.4,17.2 -2.4,3.9 -4.8,6.9 -6.7,9.2"
   inkscape:connector-curvature="0"
   style="fill:none;stroke:none;stroke-width:2;stroke-linecap:round;stroke-linejoin:round;stroke-miterlimit:10" /><path
   id="XMLID_2635_"
   stroke-miterlimit="10"
   d="m 308.4,518 c -4.4,2.4 -9.2,5.8 -13.3,10.9 -2.2,2.7 -3.2,4.7 -7.1,11.5 -2.1,3.7 -5.2,9.1 -9.2,15.9"
   inkscape:connector-curvature="0"
   style="fill:none;stroke:none;stroke-width:2;stroke-linecap:round;stroke-linejoin:round;stroke-miterlimit:10" /><path
   style="fill:none;stroke:none;stroke-width:2;stroke-linecap:round;stroke-linejoin:round;stroke-miterlimit:10"
   d="m 258.89999,512.5 -6.29998,30.59998"
   id="XMLID_2634_" /><path
   style="fill:none;stroke:none;stroke-width:2;stroke-linecap:round;stroke-linejoin:round;stroke-miterlimit:10"
   d="m 356.39999,513.20001 6.30002,30.5"
   id="XMLID_2633_" /><path
   id="XMLID_2632_"
   stroke-miterlimit="10"
   d="m 308.1,518 c 4.4,2.4 9.2,5.8 13.3,10.9 2.1,2.7 3.2,4.7 7.1,11.5 2.2,3.8 5.1,9 8.7,15.2"
   inkscape:connector-curvature="0"
   style="fill:none;stroke:none;stroke-width:2;stroke-linecap:round;stroke-linejoin:round;stroke-miterlimit:10" />

    <path
   class="tie-part"
   d="m 319.2,567.2 c -0.4,-2 -0.9,-4.1 -1.3,-6.2 -0.4,-1.9 -0.8,-3.8 -1.2,-5.7 -0.4,-2.1 -0.9,-4.2 -1.3,-6.3 -0.4,-1.8 -0.7,-3.5 -1.1,-5.3 -0.2,-1.2 -0.5,-2.2 -0.7,-3.4 -2.9,0 -5.9,0 -8.7,0 -0.2,1.2 -0.4,2.2 -0.6,3.4 -0.3,1.8 -0.6,3.5 -0.9,5.3 -0.4,2.1 -0.8,4.2 -1.2,6.3 -0.3,1.9 -0.7,3.8 -1.1,5.8 -0.3,1.7 -0.6,3.3 -0.9,5 -0.3,1.7 -0.6,3.4 -0.9,5.1 7,0.2 14,0.3 21,0.5 -0.5,-1.6 -0.8,-3 -1.1,-4.5 z"
   id="path3177"
   inkscape:connector-curvature="0" /><path
   style="fill:none;stroke:none;stroke-width:2;stroke-linecap:round;stroke-linejoin:round;stroke-miterlimit:10"
   d="m 252.60001,543.09998 24.29998,28.70001"
   id="XMLID_2683_" /><path
   style="fill:none;stroke:none;stroke-width:2;stroke-linecap:round;stroke-linejoin:round;stroke-miterlimit:10"
   d="m 362.70001,543.70001 -24.30002,28.70001"
   id="XMLID_2682_" /><path
   sodipodi:nodetypes="cc"
   id="XMLID_2642_-6"
   stroke-miterlimit="10"
   d="m 338.19752,572.62696 c -4.76875,-0.25461 -6.00102,-0.41427 -10.57507,-0.94909"
   inkscape:connector-curvature="0"
   style="fill:none;stroke:none;stroke-width:2;stroke-linecap:round;stroke-linejoin:round;stroke-miterlimit:10" /><path
   sodipodi:nodetypes="cc"
   id="XMLID_2642_-7"
   stroke-miterlimit="10"
   d="m 327.60528,571.28259 c -5.79273,0.55311 -37.63035,-0.17751 -40.28459,-0.11298"
   inkscape:connector-curvature="0"
   style="fill:none;stroke:none;stroke-width:2;stroke-linecap:round;stroke-linejoin:round;stroke-miterlimit:10" /><path
   inkscape:connector-curvature="0"
   id="path6644"
   d="m 277.11701,549.94472 c -3.27754,-8.68978 -4.46922,-17.21876 -3.64483,-26.08641 0.43035,-4.62911 1.95157,-13.35087 2.40827,-13.80757 0.0924,-0.0924 1.2229,0.45389 2.51215,1.21406 5.88862,3.47206 15.6343,6.74407 22.0428,7.40064 l 2.847,0.29168 -4.04112,3.8441 c -5.06576,4.81878 -6.69912,7.15284 -14.16628,20.24343 -3.31096,5.80442 -6.1438,10.55922 -6.29518,10.56621 -0.15139,0.007 -0.89965,-1.64277 -1.66281,-3.66614 z"
   style="fill:none" /><path
   inkscape:connector-curvature="0"
   id="path6646"
   d="m 287.40445,568.00455 c -2.12386,-2.54607 -5.96408,-8.37697 -6.72177,-10.2062 -0.52253,-1.26149 -0.27263,-1.79246 5.96192,-12.66748 3.57902,-6.24295 7.23341,-12.41977 8.12086,-13.72628 l 1.61356,-2.37548 0.92897,2.37548 c 0.51093,1.30651 1.7824,4.03096 2.82548,6.05433 1.60554,3.11442 2.06678,3.67885 3.00634,3.67885 0.83688,0 1.10982,0.23478 1.10982,0.95464 0,0.52506 -1.10365,6.91807 -2.45257,14.20669 -1.34891,7.28863 -2.45256,13.38064 -2.45256,13.53781 0,0.15717 -2.28896,0.28576 -5.08658,0.28576 l -5.08657,0 -1.7669,-2.11812 z"
   style="fill:none" /><path
   inkscape:connector-curvature="0"
   id="path6648"
   d="m 317.22927,556.63354 c -1.53496,-7.41902 -2.87275,-13.79012 -2.97286,-14.15801 -0.10564,-0.38815 0.34629,-0.97042 1.07677,-1.38734 1.01803,-0.58103 1.62668,-1.71116 3.1821,-5.90846 1.05782,-2.8545 1.99713,-5.19 2.08737,-5.19 0.34362,0 4.232,6.38623 9.70603,15.9411 l 5.68389,9.92116 -1.65249,3.01056 c -1.40224,2.55465 -4.83078,7.64631 -7.05668,10.47976 -0.48599,0.61863 -1.3022,0.78036 -3.93817,0.78036 l -3.32512,0 -2.79084,-13.48913 z"
   style="fill:none" /><path
   inkscape:connector-curvature="0"
   id="path6650"
   d="m 330.99105,542.22796 c -7.06024,-12.32761 -9.22438,-15.32279 -14.31992,-19.8189 l -3.7903,-3.34441 3.76977,-0.54757 c 6.021,-0.87455 11.93696,-2.77169 17.81278,-5.71222 l 5.46509,-2.73499 0.44635,1.65763 c 1.78239,6.61928 2.29735,19.27255 1.08805,26.73474 -0.63302,3.90614 -3.38749,13.16877 -4.14142,13.92664 -0.17839,0.17931 -3.02707,-4.3931 -6.3304,-10.16092 z"
   style="fill:none" /><path
   inkscape:connector-curvature="0"
   id="path6652"
   d="m 332.93676,571.058 c -1.51268,-0.14654 -2.85773,-0.37405 -2.98898,-0.50558 -0.13125,-0.13152 0.97814,-1.93751 2.46531,-4.01329 5.04926,-7.04775 9.66003,-17.99086 11.36018,-26.96209 1.33665,-7.05314 0.76577,-23.45734 -0.97413,-27.99145 -0.20738,-0.54042 0.53437,-0.41104 3.49617,0.60985 2.06767,0.7127 4.95031,1.42029 6.40588,1.57242 l 2.64649,0.27662 3.02203,14.64547 3.02202,14.64546 -11.92032,14.06252 c -9.0576,10.68533 -12.14414,14.04618 -12.85231,13.99451 -0.5126,-0.0374 -2.16965,-0.1879 -3.68234,-0.33444 z"
   style="fill:none" /><path
   inkscape:connector-curvature="0"
   id="path6654"
   d="m 275.20359,567.8405 c -1.35829,-1.56526 -6.44535,-7.56155 -11.30459,-13.32508 -4.85924,-5.76354 -9.09237,-10.78115 -9.40696,-11.15025 -0.47219,-0.554 -0.0698,-3.12154 2.30604,-14.71541 1.58292,-7.72438 2.97973,-14.37038 3.10401,-14.76888 0.15258,-0.48923 0.98232,-0.82328 2.55473,-1.02853 3.01086,-0.39303 6.78279,-1.47657 8.94931,-2.57082 0.94348,-0.47653 1.76985,-0.80225 1.83638,-0.72382 0.0665,0.0784 -0.3777,2.45023 -0.98718,5.27068 -0.94199,4.35919 -1.11705,6.39848 -1.1675,13.60061 -0.0638,9.11236 0.40999,12.55684 2.66835,19.39759 1.66672,5.0486 6.41428,14.49922 9.26789,18.44886 1.39497,1.93077 2.4646,3.5822 2.37695,3.66985 -0.0876,0.0877 -1.86227,0.29025 -3.94359,0.45024 l -3.78423,0.29088 -2.46961,-2.84592 z"
   style="fill:none" /></g></g>






      </svg>